<?xml version="1.0" encoding="UTF-8"?>
<svg version="1.1" xmlns="http://www.w3.org/2000/svg" width="512" height="512">
<path d="M0 0 C2.15743821 -0.01036221 4.31486908 -0.02235895 6.47229004 -0.0358429 C12.26490594 -0.06656861 18.05727175 -0.07217536 23.84995937 -0.07091117 C28.70159266 -0.0717476 33.55317328 -0.08403022 38.40479016 -0.09586078 C49.8447643 -0.12310743 61.28460965 -0.12859616 72.72460938 -0.12109375 C84.5107451 -0.11382647 96.29628654 -0.14743542 108.08229327 -0.20015115 C118.2330892 -0.24390722 128.3836926 -0.26065106 138.53458142 -0.25611526 C144.58441057 -0.25379514 150.63375671 -0.26207762 156.68349457 -0.2971859 C162.36059658 -0.32911313 168.0367064 -0.32735426 173.71382141 -0.29974174 C175.79391186 -0.29528504 177.87406769 -0.30274086 179.95406342 -0.32308578 C197.62775532 -0.48424152 197.62775532 -0.48424152 202.76275635 3.92961121 C203.76929561 5.10811758 204.73999621 6.31878838 205.66113281 7.56518555 C206.69884408 8.59041157 207.75009309 9.6023413 208.82128906 10.5925293 C209.79133074 11.55998764 210.75882792 12.5300047 211.72363281 13.50268555 C212.4400293 14.21328125 212.4400293 14.21328125 213.17089844 14.93823242 C215.83644898 17.61090059 218.36068384 20.35602322 220.81347656 23.2253418 C225.63540159 28.78971226 230.92336164 33.89763026 236.16113281 39.06518555 C247.34900697 50.10307863 247.34900697 50.10307863 251.12988281 54.53393555 C255.96746677 60.19617367 261.36515081 65.33697662 266.66113281 70.56518555 C272.56084539 76.38939906 278.42018002 82.17574268 283.80566406 88.48706055 C288.03225092 93.22083782 292.64484447 97.60944113 297.16113281 102.06518555 C308.34900697 113.10307863 308.34900697 113.10307863 312.12988281 117.53393555 C316.96746677 123.19617367 322.36515081 128.33697662 327.66113281 133.56518555 C333.55464098 139.38327405 339.40539242 145.16355321 344.78369141 151.46948242 C347.19287053 154.15874037 349.73937516 156.69937702 352.30566406 159.23706055 C352.80605194 159.7319397 353.30643982 160.22681885 353.82199097 160.73669434 C355.9001558 162.78717348 357.98198228 164.83384831 360.06811523 166.8762207 C361.61003109 168.38794021 363.14566618 169.9058216 364.68066406 171.42456055 C365.58921143 172.31626953 366.49775879 173.20797852 367.43383789 174.12670898 C371.76619958 178.86984485 371.95131987 182.73247864 371.92182922 189.01811218 C371.92565477 189.87933192 371.92948032 190.74055165 371.93342179 191.62786895 C371.94375621 194.51938975 371.93975862 197.41071212 371.93579102 200.30224609 C371.94013762 202.37375065 371.94532059 204.4452536 371.95127869 206.51675415 C371.96469518 212.15179459 371.9652437 217.78676805 371.96271539 223.42182136 C371.96164604 228.13260749 371.96652885 232.84338005 371.97132081 237.55416328 C371.9824282 248.68162695 371.98284849 259.80905689 371.97680664 270.93652344 C371.97078443 282.38681132 371.98303034 293.83697577 372.00437671 305.28724259 C372.02205186 315.13295066 372.02798421 324.97861969 372.02473897 334.82434303 C372.02293311 340.69736411 372.02549093 346.57029744 372.03945351 352.44330406 C372.05212116 357.97960729 372.05000397 363.51572039 372.03704262 369.05202103 C372.03469545 371.07186894 372.0373438 373.09173059 372.04566574 375.11156273 C372.10598978 390.90671558 370.77743494 405.89633666 365.59863281 420.94018555 C365.30263184 421.80957764 365.00663086 422.67896973 364.70166016 423.57470703 C357.98704906 442.47173658 347.36896059 458.03969787 333.66113281 472.56518555 C332.98824219 473.3025293 332.31535156 474.03987305 331.62207031 474.79956055 C315.22013944 492.12294821 292.72301803 504.01175516 269.66113281 509.56518555 C268.15486895 509.94191202 268.15486895 509.94191202 266.61817551 510.32624912 C253.4177321 513.22962944 240.28740904 512.99515936 226.82617188 512.96923828 C224.1370738 512.97494956 221.44800047 512.98181784 218.75891113 512.99003601 C212.24653484 513.0071249 205.73425545 513.00808467 199.22186258 513.00282311 C193.92110966 512.99876097 188.62038509 513.00024905 183.31963348 513.00557137 C182.56157608 513.00631979 181.80351867 513.00706821 181.02248983 513.00783931 C179.481857 513.00937099 177.94122417 513.01090934 176.40059134 513.01245428 C161.99200462 513.02614388 147.58347236 513.02076699 133.17488691 513.00926907 C120.03644636 512.99934399 106.8981468 513.0122711 93.75972798 513.03620326 C80.22156172 513.06067495 66.68346088 513.07018218 53.14527297 513.06355053 C45.56372842 513.0600757 37.98229211 513.06217432 30.40076447 513.07980156 C23.94580936 513.09462516 17.4910387 513.09502821 11.03608683 513.07773065 C7.75243347 513.06930006 4.46917072 513.06909744 1.18552399 513.0823822 C-37.50808765 513.22685755 -70.83032791 502.57790641 -99.33886719 475.56518555 C-100.23605469 474.73245117 -101.13324219 473.8997168 -102.05761719 473.04174805 C-125.63540425 450.45740707 -139.90397895 417.76982408 -140.80013371 385.16096497 C-140.88333232 379.19880637 -140.87686463 373.23869381 -140.85644531 367.27612305 C-140.86187755 364.58642725 -140.86886423 361.89677505 -140.87768555 359.20709229 C-140.89531929 352.70859976 -140.89169927 346.21029372 -140.88003498 339.71179438 C-140.87094052 334.42257331 -140.86980238 329.13340391 -140.87413025 323.84417725 C-140.87474318 323.0866618 -140.87535611 322.32914635 -140.87598762 321.54867589 C-140.87726673 320.00900919 -140.87856359 318.46934249 -140.87987798 316.92967582 C-140.8912394 302.54775621 -140.8782402 288.16593917 -140.85667652 273.7840364 C-140.83880958 261.48772754 -140.84191494 249.19156981 -140.86035156 236.89526367 C-140.88183721 222.55903201 -140.89014118 208.22288988 -140.87790251 193.88664436 C-140.87662853 192.35316087 -140.87537104 190.81967737 -140.87413025 189.28619385 C-140.87351315 188.53201341 -140.87289604 187.77783297 -140.87226024 187.00079858 C-140.86883032 181.72802894 -140.87458428 176.45531687 -140.88404846 171.18255615 C-140.8953559 164.74232756 -140.89204734 158.30229354 -140.87092549 151.86208677 C-140.86053088 148.58651357 -140.8583046 145.3113236 -140.86952209 142.03574371 C-140.98964467 103.36579026 -130.33437464 70.05555823 -103.33886719 41.56518555 C-102.50613281 40.66799805 -101.67339844 39.77081055 -100.81542969 38.84643555 C-74.07617615 10.93096851 -37.75972381 -0.07259353 0 0 Z " fill="#FEFEFE" transform="translate(140.3388671875,-0.565185546875)"/>
<path d="M0 0 C2.15743821 -0.01036221 4.31486908 -0.02235895 6.47229004 -0.0358429 C12.26490594 -0.06656861 18.05727175 -0.07217536 23.84995937 -0.07091117 C28.70159266 -0.0717476 33.55317328 -0.08403022 38.40479016 -0.09586078 C49.8447643 -0.12310743 61.28460965 -0.12859616 72.72460938 -0.12109375 C84.5107451 -0.11382647 96.29628654 -0.14743542 108.08229327 -0.20015115 C118.2330892 -0.24390722 128.3836926 -0.26065106 138.53458142 -0.25611526 C144.58441057 -0.25379514 150.63375671 -0.26207762 156.68349457 -0.2971859 C162.36059658 -0.32911313 168.0367064 -0.32735426 173.71382141 -0.29974174 C175.79391186 -0.29528504 177.87406769 -0.30274086 179.95406342 -0.32308578 C197.62775532 -0.48424152 197.62775532 -0.48424152 202.76275635 3.92961121 C203.76929561 5.10811758 204.73999621 6.31878838 205.66113281 7.56518555 C206.69884408 8.59041157 207.75009309 9.6023413 208.82128906 10.5925293 C209.79133074 11.55998764 210.75882792 12.5300047 211.72363281 13.50268555 C212.4400293 14.21328125 212.4400293 14.21328125 213.17089844 14.93823242 C215.83644898 17.61090059 218.36068384 20.35602322 220.81347656 23.2253418 C225.63540159 28.78971226 230.92336164 33.89763026 236.16113281 39.06518555 C247.34900697 50.10307863 247.34900697 50.10307863 251.12988281 54.53393555 C255.96746677 60.19617367 261.36515081 65.33697662 266.66113281 70.56518555 C272.56084539 76.38939906 278.42018002 82.17574268 283.80566406 88.48706055 C288.03225092 93.22083782 292.64484447 97.60944113 297.16113281 102.06518555 C308.34900697 113.10307863 308.34900697 113.10307863 312.12988281 117.53393555 C316.96746677 123.19617367 322.36515081 128.33697662 327.66113281 133.56518555 C333.55464098 139.38327405 339.40539242 145.16355321 344.78369141 151.46948242 C347.19287053 154.15874037 349.73937516 156.69937702 352.30566406 159.23706055 C352.80605194 159.7319397 353.30643982 160.22681885 353.82199097 160.73669434 C355.9001558 162.78717348 357.98198228 164.83384831 360.06811523 166.8762207 C361.61003109 168.38794021 363.14566618 169.9058216 364.68066406 171.42456055 C365.58921143 172.31626953 366.49775879 173.20797852 367.43383789 174.12670898 C371.76619958 178.86984485 371.95131987 182.73247864 371.92182922 189.01811218 C371.92565477 189.87933192 371.92948032 190.74055165 371.93342179 191.62786895 C371.94375621 194.51938975 371.93975862 197.41071212 371.93579102 200.30224609 C371.94013762 202.37375065 371.94532059 204.4452536 371.95127869 206.51675415 C371.96469518 212.15179459 371.9652437 217.78676805 371.96271539 223.42182136 C371.96164604 228.13260749 371.96652885 232.84338005 371.97132081 237.55416328 C371.9824282 248.68162695 371.98284849 259.80905689 371.97680664 270.93652344 C371.97078443 282.38681132 371.98303034 293.83697577 372.00437671 305.28724259 C372.02205186 315.13295066 372.02798421 324.97861969 372.02473897 334.82434303 C372.02293311 340.69736411 372.02549093 346.57029744 372.03945351 352.44330406 C372.05212116 357.97960729 372.05000397 363.51572039 372.03704262 369.05202103 C372.03469545 371.07186894 372.0373438 373.09173059 372.04566574 375.11156273 C372.10598978 390.90671558 370.77743494 405.89633666 365.59863281 420.94018555 C365.30263184 421.80957764 365.00663086 422.67896973 364.70166016 423.57470703 C357.98704906 442.47173658 347.36896059 458.03969787 333.66113281 472.56518555 C332.98824219 473.3025293 332.31535156 474.03987305 331.62207031 474.79956055 C315.22013944 492.12294821 292.72301803 504.01175516 269.66113281 509.56518555 C268.15486895 509.94191202 268.15486895 509.94191202 266.61817551 510.32624912 C253.4177321 513.22962944 240.28740904 512.99515936 226.82617188 512.96923828 C224.1370738 512.97494956 221.44800047 512.98181784 218.75891113 512.99003601 C212.24653484 513.0071249 205.73425545 513.00808467 199.22186258 513.00282311 C193.92110966 512.99876097 188.62038509 513.00024905 183.31963348 513.00557137 C182.56157608 513.00631979 181.80351867 513.00706821 181.02248983 513.00783931 C179.481857 513.00937099 177.94122417 513.01090934 176.40059134 513.01245428 C161.99200462 513.02614388 147.58347236 513.02076699 133.17488691 513.00926907 C120.03644636 512.99934399 106.8981468 513.0122711 93.75972798 513.03620326 C80.22156172 513.06067495 66.68346088 513.07018218 53.14527297 513.06355053 C45.56372842 513.0600757 37.98229211 513.06217432 30.40076447 513.07980156 C23.94580936 513.09462516 17.4910387 513.09502821 11.03608683 513.07773065 C7.75243347 513.06930006 4.46917072 513.06909744 1.18552399 513.0823822 C-37.50808765 513.22685755 -70.83032791 502.57790641 -99.33886719 475.56518555 C-100.23605469 474.73245117 -101.13324219 473.8997168 -102.05761719 473.04174805 C-125.63540425 450.45740707 -139.90397895 417.76982408 -140.80013371 385.16096497 C-140.88333232 379.19880637 -140.87686463 373.23869381 -140.85644531 367.27612305 C-140.86187755 364.58642725 -140.86886423 361.89677505 -140.87768555 359.20709229 C-140.89531929 352.70859976 -140.89169927 346.21029372 -140.88003498 339.71179438 C-140.87094052 334.42257331 -140.86980238 329.13340391 -140.87413025 323.84417725 C-140.87474318 323.0866618 -140.87535611 322.32914635 -140.87598762 321.54867589 C-140.87726673 320.00900919 -140.87856359 318.46934249 -140.87987798 316.92967582 C-140.8912394 302.54775621 -140.8782402 288.16593917 -140.85667652 273.7840364 C-140.83880958 261.48772754 -140.84191494 249.19156981 -140.86035156 236.89526367 C-140.88183721 222.55903201 -140.89014118 208.22288988 -140.87790251 193.88664436 C-140.87662853 192.35316087 -140.87537104 190.81967737 -140.87413025 189.28619385 C-140.87351315 188.53201341 -140.87289604 187.77783297 -140.87226024 187.00079858 C-140.86883032 181.72802894 -140.87458428 176.45531687 -140.88404846 171.18255615 C-140.8953559 164.74232756 -140.89204734 158.30229354 -140.87092549 151.86208677 C-140.86053088 148.58651357 -140.8583046 145.3113236 -140.86952209 142.03574371 C-140.98964467 103.36579026 -130.33437464 70.05555823 -103.33886719 41.56518555 C-102.50613281 40.66799805 -101.67339844 39.77081055 -100.81542969 38.84643555 C-74.07617615 10.93096851 -37.75972381 -0.07259353 0 0 Z M-87.33886719 55.56518555 C-88.19351563 56.3953418 -89.04816406 57.22549805 -89.92871094 58.08081055 C-108.72247122 77.43868054 -119.54037658 104.99524923 -119.4591217 131.85360718 C-119.45997772 132.88530029 -119.46083374 133.91699341 -119.4617157 134.97994995 C-119.46337031 138.44636769 -119.45784814 141.91273707 -119.45239258 145.37915039 C-119.45208625 147.9029827 -119.45221973 150.42681509 -119.45275784 152.95064735 C-119.4529608 159.0269235 -119.4486765 165.10318178 -119.44225651 171.17945407 C-119.43505143 178.20948019 -119.43426148 185.23950116 -119.43347168 192.26953125 C-119.42822313 210.82641836 -119.414262 229.38330218 -119.40136719 247.94018555 C-119.38074219 289.39643555 -119.36011719 330.85268555 -119.33886719 373.56518555 C36.09113281 373.56518555 191.52113281 373.56518555 351.66113281 373.56518555 C351.66113281 312.84518555 351.66113281 252.12518555 351.66113281 189.56518555 C336.81113281 189.23518555 321.96113281 188.90518555 306.66113281 188.56518555 C281.95599115 184.8594143 281.95599115 184.8594143 270.66113281 180.56518555 C269.95279297 180.29609375 269.24445313 180.02700195 268.51464844 179.74975586 C250.45502284 172.6964599 235.38571643 162.1501295 221.66113281 148.56518555 C221.00113281 147.96577148 220.34113281 147.36635742 219.66113281 146.7487793 C205.05567562 133.25901675 196.20023106 113.94623287 189.66113281 95.56518555 C189.33242188 94.67444336 189.00371094 93.78370117 188.66503906 92.8659668 C183.27154115 76.85314657 183.16073979 59.57328156 182.97363281 42.87768555 C182.94035249 40.79628539 182.90585358 38.71490436 182.87011719 36.63354492 C182.78646758 31.61086689 182.71909709 26.58822293 182.66113281 21.56518555 C156.45230071 21.49498146 130.24348278 21.4421416 104.03457546 21.40974903 C91.86424547 21.39430619 79.69397404 21.37326619 67.52368164 21.33886719 C56.91117072 21.30888561 46.29870223 21.28959179 35.68615013 21.28292006 C30.07133196 21.27902262 24.45663513 21.26991723 18.841856 21.24799538 C13.54693958 21.22749168 8.25219342 21.22137959 2.95724106 21.2258625 C1.02362579 21.22504347 -0.90999573 21.21916116 -2.84357643 21.20756912 C-35.64653098 21.02071274 -63.89056209 32.40115156 -87.33886719 55.56518555 Z " fill="#497EBE" transform="translate(140.3388671875,-0.565185546875)"/>
<path d="M0 0 C2.15743821 -0.01036221 4.31486908 -0.02235895 6.47229004 -0.0358429 C12.26490594 -0.06656861 18.05727175 -0.07217536 23.84995937 -0.07091117 C28.70159266 -0.0717476 33.55317328 -0.08403022 38.40479016 -0.09586078 C49.8447643 -0.12310743 61.28460965 -0.12859616 72.72460938 -0.12109375 C84.5107451 -0.11382647 96.29628654 -0.14743542 108.08229327 -0.20015115 C118.2330892 -0.24390722 128.3836926 -0.26065106 138.53458142 -0.25611526 C144.58441057 -0.25379514 150.63375671 -0.26207762 156.68349457 -0.2971859 C162.36059658 -0.32911313 168.0367064 -0.32735426 173.71382141 -0.29974174 C175.79391186 -0.29528504 177.87406769 -0.30274086 179.95406342 -0.32308578 C197.62775532 -0.48424152 197.62775532 -0.48424152 202.76275635 3.92961121 C203.76929561 5.10811758 204.73999621 6.31878838 205.66113281 7.56518555 C206.69884408 8.59041157 207.75009309 9.6023413 208.82128906 10.5925293 C209.79133074 11.55998764 210.75882792 12.5300047 211.72363281 13.50268555 C212.4400293 14.21328125 212.4400293 14.21328125 213.17089844 14.93823242 C215.83644898 17.61090059 218.36068384 20.35602322 220.81347656 23.2253418 C225.63540159 28.78971226 230.92336164 33.89763026 236.16113281 39.06518555 C247.34900697 50.10307863 247.34900697 50.10307863 251.12988281 54.53393555 C255.96746677 60.19617367 261.36515081 65.33697662 266.66113281 70.56518555 C272.56084539 76.38939906 278.42018002 82.17574268 283.80566406 88.48706055 C288.03225092 93.22083782 292.64484447 97.60944113 297.16113281 102.06518555 C308.34900697 113.10307863 308.34900697 113.10307863 312.12988281 117.53393555 C316.96746677 123.19617367 322.36515081 128.33697662 327.66113281 133.56518555 C333.55464098 139.38327405 339.40539242 145.16355321 344.78369141 151.46948242 C347.19287053 154.15874037 349.73937516 156.69937702 352.30566406 159.23706055 C352.80605194 159.7319397 353.30643982 160.22681885 353.82199097 160.73669434 C355.9001558 162.78717348 357.98198228 164.83384831 360.06811523 166.8762207 C361.61003109 168.38794021 363.14566618 169.9058216 364.68066406 171.42456055 C365.58921143 172.31626953 366.49775879 173.20797852 367.43383789 174.12670898 C371.76619958 178.86984485 371.95131987 182.73247864 371.92182922 189.01811218 C371.92565477 189.87933192 371.92948032 190.74055165 371.93342179 191.62786895 C371.94375621 194.51938975 371.93975862 197.41071212 371.93579102 200.30224609 C371.94013762 202.37375065 371.94532059 204.4452536 371.95127869 206.51675415 C371.96469518 212.15179459 371.9652437 217.78676805 371.96271539 223.42182136 C371.96164604 228.13260749 371.96652885 232.84338005 371.97132081 237.55416328 C371.9824282 248.68162695 371.98284849 259.80905689 371.97680664 270.93652344 C371.97078443 282.38681132 371.98303034 293.83697577 372.00437671 305.28724259 C372.02205186 315.13295066 372.02798421 324.97861969 372.02473897 334.82434303 C372.02293311 340.69736411 372.02549093 346.57029744 372.03945351 352.44330406 C372.05212116 357.97960729 372.05000397 363.51572039 372.03704262 369.05202103 C372.03469545 371.07186894 372.0373438 373.09173059 372.04566574 375.11156273 C372.10598978 390.90671558 370.77743494 405.89633666 365.59863281 420.94018555 C365.30263184 421.80957764 365.00663086 422.67896973 364.70166016 423.57470703 C357.98704906 442.47173658 347.36896059 458.03969787 333.66113281 472.56518555 C332.98824219 473.3025293 332.31535156 474.03987305 331.62207031 474.79956055 C315.22013944 492.12294821 292.72301803 504.01175516 269.66113281 509.56518555 C268.15486895 509.94191202 268.15486895 509.94191202 266.61817551 510.32624912 C253.4177321 513.22962944 240.28740904 512.99515936 226.82617188 512.96923828 C224.1370738 512.97494956 221.44800047 512.98181784 218.75891113 512.99003601 C212.24653484 513.0071249 205.73425545 513.00808467 199.22186258 513.00282311 C193.92110966 512.99876097 188.62038509 513.00024905 183.31963348 513.00557137 C182.56157608 513.00631979 181.80351867 513.00706821 181.02248983 513.00783931 C179.481857 513.00937099 177.94122417 513.01090934 176.40059134 513.01245428 C161.99200462 513.02614388 147.58347236 513.02076699 133.17488691 513.00926907 C120.03644636 512.99934399 106.8981468 513.0122711 93.75972798 513.03620326 C80.22156172 513.06067495 66.68346088 513.07018218 53.14527297 513.06355053 C45.56372842 513.0600757 37.98229211 513.06217432 30.40076447 513.07980156 C23.94580936 513.09462516 17.4910387 513.09502821 11.03608683 513.07773065 C7.75243347 513.06930006 4.46917072 513.06909744 1.18552399 513.0823822 C-37.50808765 513.22685755 -70.83032791 502.57790641 -99.33886719 475.56518555 C-100.23605469 474.73245117 -101.13324219 473.8997168 -102.05761719 473.04174805 C-125.63540425 450.45740707 -139.90397895 417.76982408 -140.80013371 385.16096497 C-140.88333232 379.19880637 -140.87686463 373.23869381 -140.85644531 367.27612305 C-140.86187755 364.58642725 -140.86886423 361.89677505 -140.87768555 359.20709229 C-140.89531929 352.70859976 -140.89169927 346.21029372 -140.88003498 339.71179438 C-140.87094052 334.42257331 -140.86980238 329.13340391 -140.87413025 323.84417725 C-140.87474318 323.0866618 -140.87535611 322.32914635 -140.87598762 321.54867589 C-140.87726673 320.00900919 -140.87856359 318.46934249 -140.87987798 316.92967582 C-140.8912394 302.54775621 -140.8782402 288.16593917 -140.85667652 273.7840364 C-140.83880958 261.48772754 -140.84191494 249.19156981 -140.86035156 236.89526367 C-140.88183721 222.55903201 -140.89014118 208.22288988 -140.87790251 193.88664436 C-140.87662853 192.35316087 -140.87537104 190.81967737 -140.87413025 189.28619385 C-140.87351315 188.53201341 -140.87289604 187.77783297 -140.87226024 187.00079858 C-140.86883032 181.72802894 -140.87458428 176.45531687 -140.88404846 171.18255615 C-140.8953559 164.74232756 -140.89204734 158.30229354 -140.87092549 151.86208677 C-140.86053088 148.58651357 -140.8583046 145.3113236 -140.86952209 142.03574371 C-140.98964467 103.36579026 -130.33437464 70.05555823 -103.33886719 41.56518555 C-102.50613281 40.66799805 -101.67339844 39.77081055 -100.81542969 38.84643555 C-74.07617615 10.93096851 -37.75972381 -0.07259353 0 0 Z M-87.33886719 55.56518555 C-88.19351563 56.3953418 -89.04816406 57.22549805 -89.92871094 58.08081055 C-108.94824044 77.6712264 -119.5023029 105.3041275 -119.47930908 132.42929077 C-119.4822802 133.5256874 -119.48525133 134.62208404 -119.48831248 135.75170481 C-119.49698658 139.42700691 -119.49850667 143.10227637 -119.5 146.77758789 C-119.50462921 149.41257887 -119.50963369 152.0475669 -119.51504517 154.68255615 C-119.52860833 161.84420209 -119.53465065 169.00584242 -119.53905582 176.16749907 C-119.54182282 180.64519207 -119.54606112 185.12288294 -119.55056 189.60057449 C-119.56275223 202.01366986 -119.57305021 214.42676351 -119.57643509 226.83986473 C-119.57665466 227.63388405 -119.57687422 228.42790337 -119.57710044 229.24598388 C-119.57731872 230.04184388 -119.577537 230.83770389 -119.57776189 231.65768087 C-119.57820534 233.27024102 -119.57865191 234.88280118 -119.57910156 236.49536133 C-119.57932299 237.29523734 -119.57954442 238.09511335 -119.57977256 238.91922803 C-119.58371487 251.86051613 -119.60115173 264.80174772 -119.62446108 277.74301402 C-119.64823479 291.0503095 -119.66063975 304.35757671 -119.66180301 317.66489375 C-119.66271663 325.12795949 -119.6683892 332.59095168 -119.68662262 340.05399704 C-119.70210539 346.41338712 -119.70709645 352.77268095 -119.69888452 359.13208632 C-119.69500608 362.37056896 -119.69743629 365.60881991 -119.70994186 368.84728622 C-119.77252728 386.07411541 -119.1618186 401.91818484 -112.71386719 418.12768555 C-112.19554321 419.45292236 -112.19554321 419.45292236 -111.66674805 420.80493164 C-99.95791109 449.75301746 -77.50172132 470.92373219 -49.33886719 483.56518555 C-48.34282282 484.02444679 -47.34677845 484.48370804 -46.32055092 484.95688629 C-29.4406635 492.13333637 -11.3251394 492.28264843 6.68994141 492.18041992 C9.32731925 492.18392999 11.96462786 492.18940463 14.60198975 492.19723511 C20.96390146 492.21161191 27.32548925 492.19968318 33.68736999 492.17812186 C41.11997658 492.15387395 48.55251269 492.15584051 55.98515005 492.15842777 C69.25627979 492.16210113 82.52725872 492.14143463 95.79833984 492.10717773 C108.63431605 492.07405702 121.47013426 492.05992824 134.30615234 492.06616211 C150.58602558 492.07402979 166.8658009 492.06455737 183.14565908 492.04131958 C188.31010783 492.03446287 193.47453616 492.03374809 198.63898849 492.03520203 C205.60123003 492.03680227 212.56328153 492.02175027 219.52547455 491.99597549 C222.069829 491.98885454 224.61420336 491.98671026 227.15856552 491.99009323 C262.37924619 492.02797008 291.94401638 483.37931334 317.66113281 458.56518555 C318.39332031 457.89616211 319.12550781 457.22713867 319.87988281 456.5378418 C342.52441848 435.28612479 350.58770491 403.50389453 351.66113281 373.56518555 C351.8100004 367.29231298 351.78859567 361.01881846 351.7746582 354.74462891 C351.77437528 352.92933656 351.77453611 351.11404411 351.77510071 349.29875183 C351.7753846 344.42800274 351.76955463 339.55727888 351.76252675 334.6865356 C351.7562245 329.5750064 351.75568403 324.46347646 351.75450134 319.35194397 C351.75140812 309.69811193 351.74322211 300.04429138 351.73315185 290.39046437 C351.72192794 279.38907182 351.71646453 268.3876787 351.71145642 257.38628185 C351.70103757 234.77924341 351.68347748 212.17221513 351.66113281 189.56518555 C350.40268555 189.55060303 349.14423828 189.53602051 347.84765625 189.52099609 C343.07607774 189.46201927 338.30492363 189.38481606 333.53369141 189.30273438 C331.48786422 189.26994356 329.44195647 189.24177741 327.39599609 189.21875 C307.90334328 188.99365057 289.02222255 187.54594769 270.66113281 180.56518555 C269.95279297 180.29609375 269.24445313 180.02700195 268.51464844 179.74975586 C250.45502284 172.6964599 235.38571643 162.1501295 221.66113281 148.56518555 C221.00113281 147.96577148 220.34113281 147.36635742 219.66113281 146.7487793 C205.05567562 133.25901675 196.20023106 113.94623287 189.66113281 95.56518555 C189.33242188 94.67444336 189.00371094 93.78370117 188.66503906 92.8659668 C183.27154115 76.85314657 183.16073979 59.57328156 182.97363281 42.87768555 C182.94035249 40.79628539 182.90585358 38.71490436 182.87011719 36.63354492 C182.78646758 31.61086689 182.71909709 26.58822293 182.66113281 21.56518555 C156.45230071 21.49498146 130.24348278 21.4421416 104.03457546 21.40974903 C91.86424547 21.39430619 79.69397404 21.37326619 67.52368164 21.33886719 C56.91117072 21.30888561 46.29870223 21.28959179 35.68615013 21.28292006 C30.07133196 21.27902262 24.45663513 21.26991723 18.841856 21.24799538 C13.54693958 21.22749168 8.25219342 21.22137959 2.95724106 21.2258625 C1.02362579 21.22504347 -0.90999573 21.21916116 -2.84357643 21.20756912 C-35.64653098 21.02071274 -63.89056209 32.40115156 -87.33886719 55.56518555 Z " fill="#4D4D4E" transform="translate(140.3388671875,-0.565185546875)"/>
<path d="M0 0 C5.44305294 4.54065206 10.50260354 9.35078389 15.5 14.375 C16.22058594 15.09171875 16.94117188 15.8084375 17.68359375 16.546875 C21.01152189 19.88082109 24.25123687 23.23903889 27.3125 26.8203125 C32.06949518 32.33978605 37.31671506 37.38620052 42.5 42.5 C53.68787416 53.53789308 53.68787416 53.53789308 57.46875 57.96875 C62.30633396 63.63098813 67.704018 68.77179108 73 74 C78.89971257 79.82421351 84.75904721 85.61055714 90.14453125 91.921875 C94.3711181 96.65565228 98.98371166 101.04425558 103.5 105.5 C109.89537632 111.80964194 116.22656488 118.10374175 122 125 C122.50595703 125.60134766 123.01191406 126.20269531 123.53320312 126.82226562 C124.69470251 128.20992623 125.84839602 129.60411639 127 131 C91.11215988 132.04641005 61.86671976 124.51450353 35 100 C34.27425781 99.35675781 33.54851562 98.71351563 32.80078125 98.05078125 C20.8410817 86.86737052 13.33597566 72.89147129 7 58 C6.55785156 56.98035156 6.11570312 55.96070313 5.66015625 54.91015625 C4.61831052 52.29571318 3.76898483 49.70698196 3 47 C2.70351563 45.96746094 2.40703125 44.93492188 2.1015625 43.87109375 C-1.26110319 29.57205202 -0.26801949 14.59125594 0 0 Z " fill="#497DBD" transform="translate(344,37)"/>
<path d="M0 0 C11.99596692 8.25743562 11.99596692 8.25743562 13.62890625 13.734375 C13.84019846 17.36042198 13.06004733 19.53092585 11.125 22.5625 C8.11869036 25.48038877 5.71325531 26.25757987 1.47265625 26.2421875 C-3.10351662 25.09995162 -6.41541289 21.79372308 -10.03515625 18.890625 C-19.87210779 11.37358694 -31.94038143 10.26352481 -44 11.625 C-55.04600835 14.54376303 -64.43832632 21.30135663 -71 30.625 C-76.94793956 41.56797925 -79.35584694 53.79057397 -76.09375 66.0234375 C-74.89355015 69.01624354 -73.55568492 71.80171996 -72 74.625 C-71.33097656 75.85863281 -71.33097656 75.85863281 -70.6484375 77.1171875 C-65.53690275 85.59833733 -57.82181817 91.19831335 -48.63671875 94.73828125 C-37.81706175 97.37637162 -25.62553216 97.18794087 -15.5546875 92.1953125 C-11.41773632 89.6524159 -7.70630689 86.74899965 -4 83.625 C-0.31502204 81.16834803 2.71971786 80.92413509 7 81.625 C9.8100346 83.41863911 11.50940468 84.64380935 13 87.625 C13.42604775 92.05589658 13.34271306 95.37504528 10.58203125 99.0234375 C-1.58984346 111.34558227 -18.5799035 117.67369099 -35.6875 118.0625 C-54.68228119 117.42535849 -69.0132867 109.92991761 -82 96.625 C-82.60457031 96.04105469 -83.20914063 95.45710938 -83.83203125 94.85546875 C-94.34969611 83.89378638 -98.57840155 67.97756626 -98.4375 53.25 C-98.42992676 52.14382324 -98.42235352 51.03764648 -98.41455078 49.89794922 C-98.25835369 42.18272477 -97.51672393 35.5927147 -94 28.625 C-93.57589844 27.70203125 -93.15179688 26.7790625 -92.71484375 25.828125 C-89.20456572 18.74890134 -84.55473707 13.19885837 -79 7.625 C-78.38511719 6.98691406 -77.77023438 6.34882813 -77.13671875 5.69140625 C-56.18727388 -14.45056537 -23.77331159 -14.08908793 0 0 Z " fill="#4B7FBE" transform="translate(210,202.375)"/>
<path d="M0 0 C7.71375 -0.103125 15.4275 -0.20625 23.375 -0.3125 C25.78989746 -0.35802002 28.20479492 -0.40354004 30.69287109 -0.45043945 C32.63637916 -0.46506121 34.5799027 -0.47779787 36.5234375 -0.48828125 C38.00130737 -0.526651 38.00130737 -0.526651 39.5090332 -0.5657959 C46.62190362 -0.57021164 52.09147971 0.93900027 58 5 C64.85801666 12.11235364 66.39985587 19.34881475 66.36791992 29.01879883 C66.18812745 36.41074036 64.29817365 40.41455465 59.5 45.8125 C50.00691938 54.11894555 40.17483588 54.15948108 28.0625 54.0625 C22.5865625 54.0315625 22.5865625 54.0315625 17 54 C17 64.56 17 75.12 17 86 C11.39 86 5.78 86 0 86 C0 57.62 0 29.24 0 0 Z " fill="#FDFEFE" transform="translate(233,394)"/>
<path d="M0 0 C7.074375 -0.04125 14.14875 -0.0825 21.4375 -0.125 C24.76026001 -0.15231201 24.76026001 -0.15231201 28.15014648 -0.18017578 C29.93212645 -0.1860243 31.71410912 -0.191119 33.49609375 -0.1953125 C34.40008911 -0.20554443 35.30408447 -0.21577637 36.23547363 -0.22631836 C45.05287742 -0.22870693 53.47654624 0.50900123 60 7 C66.35532258 15.42985793 66.88910763 23.75434203 66 34 C64.39261321 41.7111123 59.25637053 46.53741403 53 51 C45.19706407 54.58935053 36.4746323 54.12985428 28.0625 54.0625 C22.5865625 54.0315625 22.5865625 54.0315625 17 54 C17 64.56 17 75.12 17 86 C11.39 86 5.78 86 0 86 C0 57.62 0 29.24 0 0 Z " fill="#FDFEFE" transform="translate(314,394)"/>
<path d="M0 0 C5.17547741 4.16615194 9.47540407 9.28468554 11.8828125 15.515625 C11.8828125 16.835625 11.8828125 18.155625 11.8828125 19.515625 C9.4252677 20.18532091 6.96686326 20.8515018 4.5078125 21.515625 C3.80914062 21.70640625 3.11046875 21.8971875 2.390625 22.09375 C-2.890625 23.515625 -2.890625 23.515625 -5.1171875 23.515625 C-5.46330078 22.71898437 -5.46330078 22.71898437 -5.81640625 21.90625 C-8.38643999 16.3395366 -10.92421263 13.28949993 -16.3671875 10.265625 C-21.93657928 8.74669997 -27.05828752 8.73205034 -32.3671875 11.140625 C-37.77633209 14.23770977 -40.81036135 18.04903656 -42.9296875 23.828125 C-45.98515619 35.48807448 -45.12153134 48.55840156 -40.1171875 59.515625 C-36.84220943 63.94127104 -33.35535341 65.88406513 -28.1171875 67.515625 C-21.85771103 68.44636415 -17.02514875 67.84354298 -11.80859375 64.14453125 C-7.9326162 60.41177689 -6.29703701 55.65885246 -5.1171875 50.515625 C1.05504129 51.75590738 6.94963372 53.41166089 12.8828125 55.515625 C10.0986906 65.84618256 5.29086109 74.02612573 -4.1171875 79.515625 C-14.3747723 84.35053096 -27.05185883 85.4919942 -37.9296875 82.078125 C-47.93266683 77.8506754 -55.87131379 69.10636904 -60.109375 59.1953125 C-65.44119308 44.21544264 -64.56537932 27.99228943 -57.796875 13.734375 C-52.22182593 3.62007832 -44.19437588 -2.08532809 -33.4296875 -5.734375 C-21.78674771 -8.27340509 -9.92865625 -6.67270015 0 0 Z " fill="#FBFCFD" transform="translate(205.1171875,398.484375)"/>
<path d="M0 0 C0.75925781 0.03222656 1.51851563 0.06445312 2.30078125 0.09765625 C5.96389529 1.38664073 8.01884367 3.52336617 9.6875 6.9375 C10.27270725 10.5889758 10.16231414 14.12672047 10 17.8125 C9.97744141 18.78703125 9.95488281 19.7615625 9.93164062 20.765625 C9.87300753 23.15785515 9.79101153 25.5468615 9.6875 27.9375 C10.54915771 27.9060791 10.54915771 27.9060791 11.42822266 27.87402344 C14.05613374 27.79036236 16.6837639 27.7386854 19.3125 27.6875 C20.66794922 27.63722656 20.66794922 27.63722656 22.05078125 27.5859375 C27.81987965 27.50171709 31.12077912 28.04786392 35.6875 31.9375 C38.06974928 34.31974928 38.00767149 34.9877037 38.0625 38.25 C37.9901182 41.70762282 37.72764782 42.87104844 35.875 45.9375 C32.62500418 48.90892475 30.03117175 49.06079498 25.80078125 49.03515625 C24.86298828 49.03193359 23.92519531 49.02871094 22.95898438 49.02539062 C21.49428711 49.01282227 21.49428711 49.01282227 20 49 C18.51790039 48.99323242 18.51790039 48.99323242 17.00585938 48.98632812 C14.56634526 48.97454303 12.12695311 48.95809011 9.6875 48.9375 C9.70844727 49.54223145 9.72939453 50.14696289 9.75097656 50.77001953 C9.83458945 53.53400771 9.88630054 56.29772913 9.9375 59.0625 C9.98777344 60.48949219 9.98777344 60.48949219 10.0390625 61.9453125 C10.12246914 67.95059024 9.72169785 71.38035058 5.6875 75.9375 C2.21486727 77.67381636 -1.52443013 77.53940402 -5.3125 76.9375 C-8.06819447 74.75590855 -9.74838747 73.06572506 -11.3125 69.9375 C-11.39650529 68.34302536 -11.41977467 66.74509455 -11.41015625 65.1484375 C-11.40693359 64.20742188 -11.40371094 63.26640625 -11.40039062 62.296875 C-11.39201172 61.31203125 -11.38363281 60.3271875 -11.375 59.3125 C-11.37048828 58.31992187 -11.36597656 57.32734375 -11.36132812 56.3046875 C-11.34952145 53.8488984 -11.333054 51.39322896 -11.3125 48.9375 C-12.27289185 48.97677612 -12.27289185 48.97677612 -13.25268555 49.0168457 C-16.16820502 49.12111281 -19.08333198 49.18591753 -22 49.25 C-23.00740234 49.29189453 -24.01480469 49.33378906 -25.05273438 49.37695312 C-32.57245044 49.50104085 -32.57245044 49.50104085 -36.45703125 46.54296875 C-39.3933896 42.41970345 -39.74540076 40.04572897 -39.3125 34.9375 C-37.11513745 31.40602448 -35.13688046 29.4895856 -31.3125 27.9375 C-29.02246094 27.71044922 -29.02246094 27.71044922 -26.546875 27.7421875 C-25.65742188 27.74863281 -24.76796875 27.75507813 -23.8515625 27.76171875 C-22.93117188 27.77847656 -22.01078125 27.79523438 -21.0625 27.8125 C-20.12664062 27.82152344 -19.19078125 27.83054688 -18.2265625 27.83984375 C-15.92161343 27.86336364 -13.6171884 27.89623147 -11.3125 27.9375 C-11.33868408 27.33276855 -11.36486816 26.72803711 -11.3918457 26.10498047 C-11.49635816 23.34108903 -11.56099273 20.577614 -11.625 17.8125 C-11.66689453 16.86117187 -11.70878906 15.90984375 -11.75195312 14.9296875 C-11.89009974 6.97244261 -11.89009974 6.97244261 -8.91796875 3.3203125 C-5.64682285 0.32870981 -4.31218582 -0.28264747 0 0 Z " fill="#4C80BF" transform="translate(363.3125,218.0625)"/>
<path d="M0 0 C0.75925781 0.03222656 1.51851563 0.06445312 2.30078125 0.09765625 C5.96389529 1.38664073 8.01884367 3.52336617 9.6875 6.9375 C10.27270725 10.5889758 10.16231414 14.12672047 10 17.8125 C9.97744141 18.78703125 9.95488281 19.7615625 9.93164062 20.765625 C9.87300753 23.15785515 9.79101153 25.5468615 9.6875 27.9375 C10.54915771 27.9060791 10.54915771 27.9060791 11.42822266 27.87402344 C14.05613374 27.79036236 16.6837639 27.7386854 19.3125 27.6875 C20.66794922 27.63722656 20.66794922 27.63722656 22.05078125 27.5859375 C27.79241534 27.50211802 31.1878759 27.99145741 35.6875 31.9375 C38.13355705 35.60658557 38.52696402 38.67368769 37.6875 42.9375 C35.51175584 45.62855198 33.77684144 47.39282928 30.6875 48.9375 C29.09302536 49.02150529 27.49509455 49.04477467 25.8984375 49.03515625 C24.95742188 49.03193359 24.01640625 49.02871094 23.046875 49.02539062 C22.06203125 49.01701172 21.0771875 49.00863281 20.0625 49 C18.57363281 48.99323242 18.57363281 48.99323242 17.0546875 48.98632812 C14.5988984 48.97452145 12.14322896 48.958054 9.6875 48.9375 C9.70844727 49.54223145 9.72939453 50.14696289 9.75097656 50.77001953 C9.83458945 53.53400771 9.88630054 56.29772913 9.9375 59.0625 C9.98777344 60.48949219 9.98777344 60.48949219 10.0390625 61.9453125 C10.12246914 67.95059024 9.72169785 71.38035058 5.6875 75.9375 C2.21486727 77.67381636 -1.52443013 77.53940402 -5.3125 76.9375 C-8.06819447 74.75590855 -9.74838747 73.06572506 -11.3125 69.9375 C-11.39650529 68.34302536 -11.41977467 66.74509455 -11.41015625 65.1484375 C-11.40693359 64.20742188 -11.40371094 63.26640625 -11.40039062 62.296875 C-11.39201172 61.31203125 -11.38363281 60.3271875 -11.375 59.3125 C-11.37048828 58.31992187 -11.36597656 57.32734375 -11.36132812 56.3046875 C-11.34952145 53.8488984 -11.333054 51.39322896 -11.3125 48.9375 C-11.95276123 48.95844727 -12.59302246 48.97939453 -13.25268555 49.00097656 C-16.16829575 49.08439284 -19.08365452 49.13623969 -22 49.1875 C-23.00740234 49.22101563 -24.01480469 49.25453125 -25.05273438 49.2890625 C-32.5628749 49.38820627 -32.5628749 49.38820627 -36.45703125 47.046875 C-39.3615275 43.74492136 -39.65370537 41.38452273 -39.59765625 36.97265625 C-39.14571304 33.74714378 -37.63238026 32.12849803 -35.3125 29.9375 C-32.28378975 28.09571674 -30.07111278 27.69700496 -26.546875 27.7421875 C-25.65742188 27.74863281 -24.76796875 27.75507813 -23.8515625 27.76171875 C-22.93117187 27.77847656 -22.01078125 27.79523438 -21.0625 27.8125 C-20.12664062 27.82152344 -19.19078125 27.83054688 -18.2265625 27.83984375 C-15.92161343 27.86336364 -13.6171884 27.89623147 -11.3125 27.9375 C-11.33868408 27.33276855 -11.36486816 26.72803711 -11.3918457 26.10498047 C-11.49635816 23.34108903 -11.56099273 20.577614 -11.625 17.8125 C-11.66689453 16.86117187 -11.70878906 15.90984375 -11.75195312 14.9296875 C-11.89009974 6.97244261 -11.89009974 6.97244261 -8.91796875 3.3203125 C-5.64682285 0.32870981 -4.31218582 -0.28264747 0 0 Z " fill="#4C80BF" transform="translate(267.3125,218.0625)"/>
<path d="M0 0 C3.155625 -0.061875 6.31125 -0.12375 9.5625 -0.1875 C10.5429126 -0.21481201 11.5233252 -0.24212402 12.53344727 -0.27026367 C19.3171371 -0.3342283 24.17043282 0.53319785 29.4375 5.125 C31.63288667 9.16451147 31.63806857 12.50079854 31 17 C30.0625 19.875 30.0625 19.875 28 22 C21.73876495 24.95473068 15.75500132 25.39211558 8.9375 25.1875 C4.5134375 25.0946875 4.5134375 25.0946875 0 25 C0 16.75 0 8.5 0 0 Z " fill="#4F82C0" transform="translate(250,408)"/>
<path d="M0 0 C3.135 -0.0825 6.27 -0.165 9.5 -0.25 C10.47130859 -0.28641602 11.44261719 -0.32283203 12.44335938 -0.36035156 C19.45310706 -0.44875766 24.60836552 1.13830841 30 5.6875 C31.6312297 9.45971868 31.73282164 12.97297063 31 17 C29.22006431 20.74182036 26.84043353 22.68376545 22.9375 24.15234375 C18.34065877 25.34912946 13.78007644 25.21754164 9.0625 25.125 C6.071875 25.08375 3.08125 25.0425 0 25 C0 16.75 0 8.5 0 0 Z " fill="#4E82C0" transform="translate(331,408)"/>
</svg>
