<?xml version="1.0" encoding="UTF-8"?>
<svg version="1.1" xmlns="http://www.w3.org/2000/svg" width="512" height="512">
<path d="M0 0 C0.99702942 0.00304138 1.99405884 0.00608276 3.02130127 0.00921631 C19.42297909 0.08284274 35.28109539 1.03509735 51.375 4.4375 C52.41688477 4.65712402 53.45876953 4.87674805 54.53222656 5.10302734 C107.04458542 16.55717416 157.27698113 44.38732769 190.375 87.4375 C190.80135742 87.98744629 191.22771484 88.53739258 191.66699219 89.10400391 C211.05917737 114.25520736 224.65162336 143.08520357 230.375 174.4375 C230.55232666 175.40292725 230.72965332 176.36835449 230.91235352 177.36303711 C232.45478209 186.77617599 232.71499314 196.0183327 232.69067383 205.53979492 C232.68752524 208.1044418 232.7110294 210.66791735 232.73632812 213.23242188 C232.79604763 228.60186681 230.88755824 243.56465477 226.6875 258.375 C226.43258789 259.28483643 226.17767578 260.19467285 225.91503906 261.13208008 C216.08223655 295.06817117 197.41876512 322.92459275 173.375 348.4375 C172.34052734 349.53578125 172.34052734 349.53578125 171.28515625 350.65625 C163.29770049 358.88871974 154.17037004 365.68428865 144.9375 372.4375 C144.15584473 373.01395264 143.37418945 373.59040527 142.56884766 374.18432617 C141.82554199 374.72162354 141.08223633 375.2589209 140.31640625 375.8125 C139.32169312 376.53566406 139.32169312 376.53566406 138.30688477 377.2734375 C136.32176806 378.46957505 134.63991154 379.00362581 132.375 379.4375 C139.19939717 391.02814282 146.38512142 402.37250505 153.63037109 413.70361328 C156.26714921 417.83552502 158.88498245 421.97929322 161.5 426.125 C161.98194824 426.8888501 162.46389648 427.6527002 162.96044922 428.43969727 C163.9325521 429.98056989 164.90455723 431.5215042 165.87646484 433.0625 C167.45430792 435.56319362 169.0336075 438.06296244 170.61328125 440.5625 C171.14872559 441.40981689 171.68416992 442.25713379 172.23583984 443.13012695 C173.25037456 444.73550482 174.2650145 446.34081619 175.27978516 447.94604492 C176.19825527 449.39978344 177.11530554 450.85442023 178.03076172 452.31005859 C178.95711048 453.77613253 179.89153047 455.23712723 180.83251953 456.69384766 C181.29126465 457.40976074 181.75000977 458.12567383 182.22265625 458.86328125 C182.84346069 459.822948 182.84346069 459.822948 183.47680664 460.80200195 C184.375 462.4375 184.375 462.4375 184.375 464.4375 C175.10083573 464.95034093 165.83162705 465.33953802 156.54631615 465.57736778 C152.23244866 465.69161952 147.92835248 465.84596311 143.62011719 466.09716797 C115.93666391 467.66905789 115.93666391 467.66905789 108.51522827 462.41159058 C103.83222834 457.32099313 101.04585631 451.50060989 98.49169922 445.12573242 C97.01332437 441.56683747 95.11838739 438.62341965 92.97265625 435.42578125 C91.79327977 433.53447181 90.61483719 431.64257957 89.4375 429.75 C84.78992272 422.28662672 80.10789549 414.84711583 75.375 407.4375 C70.51796661 408.03143071 65.86031066 408.99437137 61.10766602 410.15161133 C40.80590563 415.06154301 21.22976323 416.87304727 0.375 416.4375 C0.39594727 417.74944336 0.41689453 419.06138672 0.43847656 420.41308594 C0.5108797 425.28081344 0.55680113 430.14849335 0.59472656 435.01660156 C0.61484126 437.12345382 0.64213667 439.23025025 0.67675781 441.33691406 C0.72528168 444.36537447 0.74797016 447.39309678 0.765625 450.421875 C0.78627014 451.36367615 0.80691528 452.30547729 0.82818604 453.27581787 C0.82848816 454.15642883 0.82879028 455.03703979 0.82910156 455.94433594 C0.83798401 456.71710876 0.84686646 457.48988159 0.85601807 458.28607178 C0.16433682 461.37972388 -1.11938033 462.54365093 -3.625 464.4375 C-6.20507812 464.94543457 -6.20507812 464.94543457 -9.15625 464.95507812 C-10.26419922 464.96768677 -11.37214844 464.98029541 -12.51367188 464.99328613 C-13.70541016 464.98518921 -14.89714844 464.97709229 -16.125 464.96875 C-17.96674805 464.97449036 -17.96674805 464.97449036 -19.84570312 464.98034668 C-22.44141459 464.98306842 -25.03715336 464.97568911 -27.6328125 464.95898438 C-31.60999599 464.93758075 -35.58537282 464.95877963 -39.5625 464.984375 C-42.08333733 464.98173177 -44.60417353 464.97660691 -47.125 464.96875 C-48.31673828 464.97684692 -49.50847656 464.98494385 -50.73632812 464.99328613 C-52.39825195 464.97437317 -52.39825195 464.97437317 -54.09375 464.95507812 C-55.06763672 464.95189575 -56.04152344 464.94871338 -57.04492188 464.94543457 C-60.42703878 464.27960431 -61.59948345 463.19934094 -63.625 460.4375 C-64.10601807 457.98236084 -64.10601807 457.98236084 -64.07910156 455.20996094 C-64.07879944 454.16918396 -64.07849731 453.12840698 -64.07818604 452.05609131 C-64.05754089 450.93929993 -64.03689575 449.82250854 -64.015625 448.671875 C-64.00996521 447.52334045 -64.00430542 446.37480591 -63.99847412 445.19146729 C-63.97608331 441.52305426 -63.92587942 437.85561783 -63.875 434.1875 C-63.85493861 431.70053494 -63.83668722 429.21355457 -63.8203125 426.7265625 C-63.77620955 420.62987511 -63.70926949 414.53375733 -63.625 408.4375 C-64.84106934 408.30335693 -66.05713867 408.16921387 -67.31005859 408.03100586 C-70.56839427 407.62155359 -73.54619722 407.00351146 -76.6640625 405.94140625 C-77.56261963 405.63565674 -78.46117676 405.32990723 -79.38696289 405.01489258 C-80.80416626 404.51252075 -80.80416626 404.51252075 -82.25 404 C-83.25345459 403.64510498 -84.25690918 403.29020996 -85.29077148 402.92456055 C-108.70081166 394.46162124 -131.20601622 383.14757849 -150.625 367.4375 C-151.45515625 366.79683594 -152.2853125 366.15617187 -153.140625 365.49609375 C-159.9775475 360.17490407 -166.3274023 354.37698188 -172.625 348.4375 C-173.35847656 347.7465625 -174.09195313 347.055625 -174.84765625 346.34375 C-203.11753451 318.91690986 -222.57650772 281.0486964 -229.625 242.4375 C-229.89098999 240.98935913 -229.89098999 240.98935913 -230.16235352 239.51196289 C-231.70478209 230.09882401 -231.96499314 220.8566673 -231.94067383 211.33520508 C-231.93752524 208.7705582 -231.9610294 206.20708265 -231.98632812 203.64257812 C-232.04604763 188.27313319 -230.13755824 173.31034523 -225.9375 158.5 C-225.68258789 157.59016357 -225.42767578 156.68032715 -225.16503906 155.74291992 C-218.34152933 132.19284377 -207.3672697 110.96698673 -192.625 91.4375 C-191.92632812 90.50550781 -191.22765625 89.57351562 -190.5078125 88.61328125 C-184.98871434 81.50257594 -178.81455697 74.962279 -172.625 68.4375 C-171.91214844 67.68210937 -171.19929688 66.92671875 -170.46484375 66.1484375 C-165.24187225 60.76459419 -159.55940986 56.01513285 -153.625 51.4375 C-152.69349121 50.71602783 -152.69349121 50.71602783 -151.74316406 49.97998047 C-123.39305557 28.240321 -90.94606024 13.47751973 -56.125 5.6875 C-55.29742187 5.50082764 -54.46984375 5.31415527 -53.6171875 5.12182617 C-35.82886448 1.38177752 -18.14905585 -0.11856646 0 0 Z M-112.40234375 121.33203125 C-114.17668137 123.01281856 -115.95677505 124.55496551 -117.875 126.0625 C-121.5352415 129.22361766 -124.55680458 132.70706042 -127.625 136.4375 C-128.77162109 137.81035156 -128.77162109 137.81035156 -129.94140625 139.2109375 C-153.18640103 168.09438954 -161.02026724 201.46997003 -158.43896484 238.07568359 C-155.56450274 264.28539205 -141.42921092 289.30829391 -123.6328125 308.25390625 C-121.625 310.4375 -121.625 310.4375 -119.578125 313.01953125 C-107.8613099 327.52494835 -89.59460874 337.78888464 -73.4375 346.4375 C-72.69395264 346.83598145 -71.95040527 347.23446289 -71.18432617 347.64501953 C-67.59957197 349.7085522 -67.59957197 349.7085522 -63.625 350.4375 C-63.62261165 349.31675174 -63.62022329 348.19600348 -63.61776257 347.04129314 C-63.55903114 319.80144155 -63.48318792 292.56167885 -63.38928509 265.32192516 C-63.34427314 252.14911383 -63.304871 238.97632986 -63.27856445 225.8034668 C-63.25562803 214.32524293 -63.22227903 202.84710527 -63.17629844 191.36894971 C-63.15230735 185.28842046 -63.13361721 179.2079769 -63.12738609 173.12740135 C-63.1213618 167.40894666 -63.10145867 161.69071138 -63.07072449 155.97233772 C-63.06190149 153.86922603 -63.05823042 151.7660857 -63.05999184 149.66295624 C-63.06163322 146.79984281 -63.04504292 143.93740739 -63.02372742 141.0743866 C-63.02857499 140.23489839 -63.03342257 139.39541019 -63.03841704 138.53048295 C-62.96850234 132.87202317 -62.96850234 132.87202317 -61.27154779 130.72541165 C-58.76518325 128.76496075 -56.67124582 129.05669334 -53.52546692 129.04981995 C-51.61029518 129.034963 -51.61029518 129.034963 -49.65643311 129.01980591 C-48.23815822 129.02404449 -46.81988427 129.0286024 -45.40161133 129.03344727 C-43.90990181 129.02774541 -42.41819666 129.02078187 -40.92649841 129.01264954 C-36.86781738 128.99466339 -32.80935198 128.99589899 -28.75064301 129.00159192 C-25.35454113 129.0046819 -21.95848077 128.99859208 -18.56238478 128.99255317 C-10.53545133 128.97848608 -2.50862419 128.98008187 5.51831055 128.99145508 C13.76664686 129.00288477 22.01465606 128.98895297 30.26294917 128.9620586 C37.36216256 128.93978741 44.4612742 128.93329133 51.56051999 128.93913502 C55.79204035 128.9424852 60.02335211 128.9402226 64.25484276 128.92288399 C68.24817124 128.90723873 72.24102408 128.9115615 76.23433495 128.93018913 C77.68698038 128.93382985 79.13966238 128.93090145 80.59227371 128.92030334 C93.86769619 128.83097718 107.02991134 130.86412628 118.8125 137.3125 C119.80866333 137.83674561 119.80866333 137.83674561 120.82495117 138.37158203 C142.68802351 150.05079087 157.40442364 168.0100851 164.8125 191.625 C165.36464946 193.55380911 165.88905079 195.49095769 166.375 197.4375 C166.5493457 198.12263672 166.72369141 198.80777344 166.90332031 199.51367188 C167.57417225 203.67212053 167.57822798 207.78181755 167.61328125 211.98828125 C167.621353 212.91988571 167.62942474 213.85149017 167.63774109 214.81132507 C167.65155321 216.7857377 167.66228817 218.76017392 167.67016602 220.73461914 C167.68160921 222.72525178 167.70193718 224.71585564 167.73168945 226.70629883 C167.96452039 242.30857297 167.1701084 256.86003496 159.5 270.875 C159.15050293 271.53910889 158.80100586 272.20321777 158.44091797 272.88745117 C146.84897488 294.58716508 129.15908275 308.96540695 105.9375 316.8125 C98.23975238 319.00354655 90.32046797 319.71431968 82.375 320.4375 C85.45092382 323.60052962 88.55504495 326.45237722 92.0625 329.125 C98.83482757 334.46783927 105.34659058 340.3880257 110.375 347.4375 C129.04237059 341.81479802 145.46497182 327.34752818 158.984375 313.828125 C160.38691459 312.42558541 161.80597756 311.03864499 163.26171875 309.69140625 C183.47560013 290.70526604 198.18112587 259.84860807 199.53613281 232.14282227 C200.01244798 193.70252644 190.96736778 161.09166774 164.328125 132.54296875 C162.73439276 130.82492539 161.26041074 129.08884665 159.8125 127.25 C149.94520608 115.86466087 136.35359375 106.86511655 123.375 99.4375 C122.76769043 99.08333008 122.16038086 98.72916016 121.53466797 98.36425781 C50.75544362 57.43909262 -52.02167893 64.04781078 -112.40234375 121.33203125 Z M0.375 192.4375 C0.375 218.8375 0.375 245.2375 0.375 272.4375 C15.84375 272.499375 15.84375 272.499375 31.625 272.5625 C34.85700195 272.58070801 38.08900391 272.59891602 41.41894531 272.61767578 C44.01367019 272.62352332 46.60839692 272.62861825 49.203125 272.6328125 C50.18862335 272.64065262 50.18862335 272.64065262 51.19403076 272.64865112 C67.56366487 272.77214021 81.0058391 271.24231022 93.33203125 259.6796875 C101.68676192 250.51025078 103.99326894 240.63899928 103.6875 228.453125 C103.06286825 217.4075536 97.42161434 209.0622554 89.5625 201.6875 C77.99410556 192.08726341 63.58771669 192.12775108 49.203125 192.2421875 C47.95708496 192.24420166 46.71104492 192.24621582 45.42724609 192.24829102 C40.8264593 192.25865946 36.22572547 192.28658107 31.625 192.3125 C16.15625 192.374375 16.15625 192.374375 0.375 192.4375 Z M0.375 336.4375 C0.375 346.6675 0.375 356.8975 0.375 367.4375 C16.92931846 368.61995132 32.85515507 367.91045791 49.375 366.4375 C45.92702437 355.6059711 39.12827697 345.87962353 29.15234375 340.1640625 C19.71348718 335.59844062 10.950823 336.4375 0.375 336.4375 Z " fill="#9E919D" transform="translate(255.625,23.5625)"/>
<path d="M0 0 C1.27815582 -0.0112793 2.55631165 -0.02255859 3.87319946 -0.03417969 C5.28784406 -0.02640212 6.70248642 -0.01820942 8.11712646 -0.00964355 C9.60898522 -0.01506491 11.10083862 -0.02218764 12.59268188 -0.03088379 C16.6472422 -0.04913773 20.70139579 -0.04203626 24.75596333 -0.02936745 C29.01127009 -0.01922789 33.26654242 -0.02863787 37.52185059 -0.03491211 C44.68095115 -0.04219525 51.83988687 -0.03259334 58.9989624 -0.0135498 C67.23994746 0.0081206 75.48053511 0.00124236 83.72151017 -0.02085543 C90.81650856 -0.03911021 97.91138839 -0.04151593 105.00640273 -0.03110075 C109.23454124 -0.02490792 113.4624943 -0.02391058 117.69062042 -0.0372467 C121.67987875 -0.04894841 125.66863562 -0.04052361 129.65784073 -0.01766968 C131.10886688 -0.01245357 132.55993644 -0.0137717 134.01094437 -0.02272034 C147.27703046 -0.09687903 160.44354173 1.93844479 172.2177124 8.38293457 C172.88254639 8.73315674 173.54738037 9.08337891 174.23236084 9.44421387 C176.09672956 10.440899 177.94152468 11.4647868 179.7802124 12.50793457 C180.63228271 12.99133301 181.48435303 13.47473145 182.36224365 13.97277832 C202.38780534 26.42110045 215.14378463 46.93037927 220.7802124 69.50793457 C221.04173096 70.53563965 221.04173096 70.53563965 221.30853271 71.58410645 C221.97938465 75.7425551 221.98344039 79.85225212 222.01849365 84.05871582 C222.0265654 84.99032028 222.03463715 85.92192474 222.04295349 86.88175964 C222.05676561 88.85617227 222.06750057 90.83060849 222.07537842 92.80505371 C222.08682161 94.79568635 222.10714959 96.78629021 222.13690186 98.7767334 C222.3697257 114.37853262 221.57583831 128.93109649 213.9052124 142.94543457 C213.55499023 143.61026855 213.20476807 144.27510254 212.84393311 144.96008301 C211.84724797 146.82445172 210.82336017 148.66924685 209.7802124 150.50793457 C209.29681396 151.36000488 208.81341553 152.2120752 208.31536865 153.08996582 C196.5795575 171.9693142 177.35469303 184.74478033 156.17474365 190.76574707 C149.7738762 192.16524628 143.29534328 192.87231205 136.7802124 193.50793457 C137.57943115 194.09059082 138.3786499 194.67324707 139.2020874 195.27355957 C152.400965 205.05065601 162.05645934 215.06748831 170.40716553 229.22766113 C172.98794558 233.51366499 175.73424955 237.69330978 178.4677124 241.88293457 C179.03022705 242.74781494 179.5927417 243.61269531 180.17230225 244.50378418 C182.82984513 248.57597819 185.51263059 252.61522268 188.3427124 256.57043457 C193.2822198 263.50521097 197.69466538 270.79740537 202.21282959 278.0098877 C204.18023704 281.14548163 206.15984597 284.27325118 208.14007568 287.40075684 C213.94388475 296.56882429 219.70102897 305.76572163 225.44158936 314.97351074 C226.03415527 315.92330811 226.62672119 316.87310547 227.23724365 317.85168457 C227.81554932 318.77980957 228.39385498 319.70793457 228.98968506 320.66418457 C230.24130452 322.65203069 231.50786735 324.63051108 232.7855835 326.60168457 C233.42705322 327.59168457 234.06852295 328.58168457 234.72943115 329.60168457 C235.3142627 330.49564941 235.89909424 331.38961426 236.50164795 332.31066895 C237.7802124 334.50793457 237.7802124 334.50793457 237.7802124 336.50793457 C228.50604813 337.0207755 219.23683945 337.40997259 209.95152855 337.64780235 C205.63766106 337.76205409 201.33356488 337.91639768 197.02532959 338.16760254 C169.34187631 339.73949246 169.34187631 339.73949246 161.92044067 334.48202515 C157.23744075 329.3914277 154.45106871 323.57104446 151.89691162 317.19616699 C150.41853677 313.63727204 148.52359979 310.69385422 146.37786865 307.49621582 C145.19849217 305.60490638 144.02004959 303.71301414 142.8427124 301.82043457 C138.19513512 294.35706129 133.51310789 286.9175504 128.7802124 279.50793457 C123.92317902 280.10186528 119.26552306 281.06480594 114.51287842 282.2220459 C94.21111804 287.13197758 74.63497563 288.94348185 53.7802124 288.50793457 C53.8116333 290.47584961 53.8116333 290.47584961 53.84368896 292.48352051 C53.91609211 297.35124801 53.96201353 302.21892792 53.99993896 307.08703613 C54.02005366 309.19388839 54.04734907 311.30068482 54.08197021 313.40734863 C54.13049409 316.43580904 54.15318257 319.46353135 54.1708374 322.49230957 C54.19148254 323.43411072 54.21212769 324.37591187 54.23339844 325.34625244 C54.23385162 326.66716888 54.23385162 326.66716888 54.23431396 328.01477051 C54.24319641 328.78754333 54.25207886 329.56031616 54.26123047 330.35650635 C53.56954922 333.45015845 52.28583207 334.6140855 49.7802124 336.50793457 C47.20013428 337.01586914 47.20013428 337.01586914 44.2489624 337.0255127 C43.14101318 337.03812134 42.03306396 337.05072998 40.89154053 337.0637207 C39.69980225 337.05562378 38.50806396 337.04752686 37.2802124 337.03918457 C35.43846436 337.04492493 35.43846436 337.04492493 33.55950928 337.05078125 C30.96379781 337.05350299 28.36805904 337.04612368 25.7723999 337.02941895 C21.79521641 337.00801532 17.81983959 337.0292142 13.8427124 337.05480957 C11.32187507 337.05216634 8.80103887 337.04704148 6.2802124 337.03918457 C5.08847412 337.04728149 3.89673584 337.05537842 2.66888428 337.0637207 C1.00696045 337.04480774 1.00696045 337.04480774 -0.6885376 337.0255127 C-1.66242432 337.02233032 -2.63631104 337.01914795 -3.63970947 337.01586914 C-7.02716964 336.34898696 -8.06770908 335.1758435 -10.2197876 332.50793457 C-10.72118425 329.91259766 -10.72118425 329.91259766 -10.72315216 326.90441895 C-10.73358315 325.7563678 -10.74401414 324.60831665 -10.75476122 323.42547607 C-10.74583833 322.16362488 -10.73691545 320.90177368 -10.72772217 319.60168457 C-10.73233007 318.24814177 -10.73868224 316.89460396 -10.74663115 315.54107666 C-10.76336326 311.81798456 -10.75506078 308.09530141 -10.74268627 304.37220764 C-10.73365385 300.35850218 -10.74759649 296.34486814 -10.75860596 292.33117676 C-10.77641517 284.46692735 -10.77254054 276.60283043 -10.76095539 268.73857498 C-10.75193077 262.34853105 -10.75069286 255.95852992 -10.75505066 249.56848145 C-10.75566359 248.65985981 -10.75627652 247.75123817 -10.75690803 246.81508255 C-10.7581869 244.9693756 -10.75948375 243.12366866 -10.76079839 241.27796173 C-10.77221123 223.96085126 -10.75907947 206.64382541 -10.73759693 189.32672882 C-10.71972531 174.46000501 -10.72282922 159.59340612 -10.74127197 144.72668457 C-10.76266628 127.47257428 -10.77111253 110.21853821 -10.75882292 92.9644165 C-10.75754869 91.12540691 -10.75629121 89.28639731 -10.75505066 87.4473877 C-10.75443356 86.54250233 -10.75381646 85.63761696 -10.75318065 84.70531082 C-10.74972343 78.32114128 -10.75556411 71.93701871 -10.76496887 65.55285645 C-10.77617426 57.77524286 -10.77317967 49.99779079 -10.7518459 42.22019577 C-10.7413157 38.25005958 -10.73724691 34.28019294 -10.7504425 30.31005859 C-10.76233189 26.67805632 -10.7558618 23.04657429 -10.7345323 19.41461945 C-10.72792311 17.47321019 -10.74103326 15.53176503 -10.75476122 13.59039307 C-10.74433023 12.44234192 -10.73389924 11.29429077 -10.72315216 10.1114502 C-10.72250275 9.11875122 -10.72185334 8.12605225 -10.72118425 7.10327148 C-9.55292823 1.05612706 -5.56909474 0.00755842 0 0 Z M53.7802124 64.50793457 C53.7802124 90.90793457 53.7802124 117.30793457 53.7802124 144.50793457 C69.2489624 144.56980957 69.2489624 144.56980957 85.0302124 144.63293457 C88.26221436 144.65114258 91.49421631 144.66935059 94.82415771 144.68811035 C97.41888259 144.69395789 100.01360932 144.69905282 102.6083374 144.70324707 C103.59383575 144.71108719 103.59383575 144.71108719 104.59924316 144.71908569 C120.96887727 144.84257478 134.41105151 143.31274479 146.73724365 131.75012207 C155.09197432 122.58068535 157.39848135 112.70943385 157.0927124 100.52355957 C156.46808066 89.47798817 150.82682674 81.13268997 142.9677124 73.75793457 C131.39931797 64.15769798 116.99292909 64.19818565 102.6083374 64.31262207 C101.36229736 64.31463623 100.11625732 64.31665039 98.8324585 64.31872559 C94.2316717 64.32909403 89.63093788 64.35701564 85.0302124 64.38293457 C69.5614624 64.44480957 69.5614624 64.44480957 53.7802124 64.50793457 Z M53.7802124 208.50793457 C53.7802124 218.73793457 53.7802124 228.96793457 53.7802124 239.50793457 C70.33453086 240.69038589 86.26036747 239.98089248 102.7802124 238.50793457 C99.33223677 227.67640567 92.53348937 217.9500581 82.55755615 212.23449707 C73.11869958 207.6688752 64.3560354 208.50793457 53.7802124 208.50793457 Z " fill="#4E9BB8" transform="translate(202.21978759765625,151.4920654296875)"/>
<path d="M0 0 C2.70425608 4.13895683 5.32367456 8.28853389 7.796875 12.5703125 C8.84701725 14.35921381 9.89911624 16.14696783 10.953125 17.93359375 C11.47132813 18.81225098 11.98953125 19.6909082 12.5234375 20.59619141 C15.37688371 25.34736226 18.43629791 29.96084348 21.5 34.578125 C23.046875 37.1328125 23.046875 37.1328125 23.046875 39.1328125 C10.47516345 42.61603519 -2.10769979 45.57180465 -15.015625 47.5078125 C-16.06331055 47.67506836 -17.11099609 47.84232422 -18.19042969 48.01464844 C-29.63186902 49.62052507 -40.07126415 49.1328125 -51.953125 49.1328125 C-51.953125 32.9628125 -51.953125 16.7928125 -51.953125 0.1328125 C-45.023125 0.1328125 -38.093125 0.1328125 -30.953125 0.1328125 C-24.72110859 -0.34493485 -18.52773767 -0.88485282 -12.3203125 -1.59570312 C-3.77146956 -2.38460642 -3.77146956 -2.38460642 0 0 Z " fill="#9D909C" transform="translate(307.953125,390.8671875)"/>
<path d="M0 0 C6 2 6 2 16 7 C16 26.14 16 45.28 16 65 C8 64 8 64 0 61 C0 40.87 0 20.74 0 0 Z " fill="#68607C" transform="translate(176,367)"/>
<path d="M0 0 C5.28 0 10.56 0 16 0 C16 16.17 16 32.34 16 49 C10.72 49 5.44 49 0 49 C0 32.83 0 16.66 0 0 Z " fill="#68607C" transform="translate(256,391)"/>
<path d="M0 0 C3.01081483 4.03117445 5.5750525 8.21652895 8.08984375 12.5703125 C9.139986 14.35921381 10.19208499 16.14696783 11.24609375 17.93359375 C11.76429688 18.81225098 12.2825 19.6909082 12.81640625 20.59619141 C15.66985246 25.34736226 18.72926666 29.96084348 21.79296875 34.578125 C23.33984375 37.1328125 23.33984375 37.1328125 23.33984375 39.1328125 C21.61302938 39.64087697 19.88326396 40.13891717 18.15234375 40.6328125 C17.18941406 40.91125 16.22648437 41.1896875 15.234375 41.4765625 C12.35510271 42.12935298 10.26791252 42.48694137 7.33984375 42.1328125 C5.59057617 40.37597656 5.59057617 40.37597656 4.0078125 37.8984375 C3.41274902 36.98384766 2.81768555 36.06925781 2.20458984 35.12695312 C1.58922363 34.13888672 0.97385742 33.15082031 0.33984375 32.1328125 C-0.28712402 31.14990234 -0.9140918 30.16699219 -1.56005859 29.15429688 C-3.51023006 26.07638098 -5.43250025 22.982621 -7.34765625 19.8828125 C-8.64240642 17.79376069 -9.93795497 15.70520345 -11.234375 13.6171875 C-11.82911621 12.65748047 -12.42385742 11.69777344 -13.03662109 10.70898438 C-14.35689352 8.61401976 -15.71208178 6.56161284 -17.1171875 4.5234375 C-18.66015625 2.1328125 -18.66015625 2.1328125 -18.66015625 0.1328125 C-16.09981867 -0.3395412 -13.54315191 -0.77028741 -10.97265625 -1.1796875 C-9.89081055 -1.38561523 -9.89081055 -1.38561523 -8.78710938 -1.59570312 C-5.03450173 -2.16116455 -3.14561199 -2.20793323 0 0 Z " fill="#68617D" transform="translate(307.66015625,390.8671875)"/>
<path d="M0 0 C3.1326747 1.10305012 3.889955 2.2660562 5.63085938 5.06274414 C6.17871094 5.92577148 6.7265625 6.78879883 7.29101562 7.67797852 C7.84660156 8.58741211 8.4021875 9.4968457 8.97460938 10.43383789 C9.53019531 11.31620117 10.08578125 12.19856445 10.65820312 13.10766602 C11.75536183 14.85408452 12.84154304 16.60745308 13.91601562 18.36791992 C14.92730837 19.99226138 15.97529469 21.59453292 17.06445312 23.16772461 C17.54011719 23.86269043 18.01578125 24.55765625 18.50585938 25.27368164 C18.93447266 25.87559326 19.36308594 26.47750488 19.8046875 27.09765625 C20.47460938 28.87133789 20.47460938 28.87133789 19.74658203 30.98974609 C18.01795324 33.5468559 16.02433762 34.61251683 13.34960938 36.12133789 C12.43953125 36.64211914 11.52945312 37.16290039 10.59179688 37.69946289 C9.893125 38.08618164 9.19445312 38.47290039 8.47460938 38.87133789 C3.97706223 34.80483957 1.0969717 30.32734992 -1.96289062 25.12133789 C-2.92507607 23.51375454 -3.8886049 21.90697444 -4.85351562 20.30102539 C-5.31177734 19.53628906 -5.77003906 18.77155273 -6.2421875 17.98364258 C-8.54376186 14.19497793 -11.00089667 10.51427854 -13.52539062 6.87133789 C-4.21951629 -0.21497342 -4.21951629 -0.21497342 0 0 Z " fill="#69617D" transform="translate(379.525390625,365.128662109375)"/>
</svg>
