<?xml version="1.0" encoding="UTF-8"?>
<svg version="1.1" xmlns="http://www.w3.org/2000/svg" width="512" height="512">
<path d="M0 0 C0.94125229 -0.00960754 1.88250458 -0.01921509 2.85227966 -0.02911377 C3.85759232 -0.03336365 4.86290497 -0.03761353 5.89868164 -0.04199219 C7.46483971 -0.0505423 7.46483971 -0.0505423 9.06263733 -0.05926514 C11.2673339 -0.06869541 13.47204445 -0.07524126 15.67675781 -0.07910156 C19.04329999 -0.08882232 22.40923533 -0.11987102 25.77563477 -0.15136719 C27.92081344 -0.15789634 30.06599647 -0.16314716 32.21118164 -0.16699219 C33.71611427 -0.18551239 33.71611427 -0.18551239 35.25144958 -0.20440674 C42.09613162 -0.18265592 46.36949844 0.86793327 51.74633789 5.34863281 C56.82887547 11.36742732 58.84146149 16.5272824 58.50024414 24.48535156 C57.5308458 31.33110272 54.2198364 35.59903892 49.00024414 39.93457031 C43.88212998 43.27570928 39.34271479 43.44196269 33.41821289 43.43457031 C31.6981544 43.45486739 29.97810236 43.47571832 28.25805664 43.49707031 C25.56805961 43.51959714 22.87831923 43.53611757 20.18823242 43.54199219 C17.5769294 43.5515908 14.9667584 43.58545927 12.35571289 43.62207031 C11.56477234 43.61702484 10.77383179 43.61197937 9.95892334 43.60678101 C2.65707763 43.73354448 -3.38074516 45.82612349 -8.75366211 50.84863281 C-13.73951801 58.62070231 -15.11163033 68.08394699 -17.06494141 76.98681641 C-17.37039703 78.36265842 -17.67626597 79.73840873 -17.98251343 81.11407471 C-18.80697129 84.82340164 -19.62545572 88.53402257 -20.44264579 92.24495649 C-21.30038164 96.13596156 -22.16309509 100.02586316 -23.02510071 103.91592407 C-24.46993588 110.43979829 -25.9109605 116.96450506 -27.34960938 123.48974609 C-29.0131954 131.03504448 -30.68243996 138.57907373 -32.35477322 146.12243783 C-33.96544521 153.38812214 -35.57252995 160.65459509 -37.17783546 167.92146683 C-37.86054526 171.01175753 -38.54444446 174.10178146 -39.22928429 177.1916008 C-40.03414921 180.82384181 -40.83585341 184.45676629 -41.6350975 188.09024811 C-42.0695268 190.0617179 -42.50706649 192.03250148 -42.94468689 194.00326538 C-43.32944183 195.75691406 -43.32944183 195.75691406 -43.7219696 197.54598999 C-43.94667781 198.56394339 -44.17138601 199.58189678 -44.40290356 200.63069725 C-44.97105059 203.2233944 -44.97105059 203.2233944 -44.87866211 206.16113281 C-44.24444336 205.79761719 -43.61022461 205.43410156 -42.95678711 205.05957031 C-36.43597108 201.54697604 -29.95823005 199.04354888 -22.87866211 196.91113281 C-22.07332031 196.66540527 -21.26797852 196.41967773 -20.43823242 196.16650391 C-9.90455463 193.10104733 0.41256513 191.8620682 11.36340332 191.89370728 C13.12171061 191.88691061 13.12171061 191.88691061 14.91553926 191.87997663 C18.13351172 191.86958785 21.35134178 191.86799271 24.56932545 191.87036538 C28.05420811 191.87077664 31.5390585 191.85970504 35.02392578 191.85025024 C41.83895919 191.83370428 48.65395799 191.82814357 55.46900982 191.82702549 C61.01584895 191.82607175 66.56267678 191.82194527 72.10951233 191.81562424 C87.87451522 191.79802756 103.63949098 191.78878264 119.40450376 191.79028518 C120.67682689 191.79040505 120.67682689 191.79040505 121.97485352 191.79052734 C123.24875076 191.79064999 123.24875076 191.79064999 124.5483833 191.79077511 C138.29492457 191.79158706 152.04135603 191.77246814 165.78786558 191.74425061 C179.94062514 191.71543111 194.09333132 191.70171535 208.24612093 191.70343816 C216.17649256 191.70409905 224.10674912 191.69874018 232.03709412 191.67708206 C238.79223657 191.6587502 245.54721185 191.65462011 252.30236858 191.66810091 C255.73989905 191.67457137 259.17710994 191.67496689 262.61460876 191.65739441 C281.56939598 191.57834677 299.72100755 192.55875781 317.49633789 199.72363281 C318.26204102 200.01431641 319.02774414 200.305 319.81665039 200.60449219 C324.05051721 202.23599087 328.06541387 204.12130343 332.12133789 206.16113281 C331.91317947 205.27264145 331.70502106 204.38415009 331.49055481 203.46873474 C326.82809356 183.52139918 322.29614547 163.54832582 317.90743637 143.53889847 C317.12994948 139.99462468 316.35096887 136.45068224 315.57156372 132.90682983 C311.23593225 113.18834821 311.23593225 113.18834821 309.18261719 103.76489258 C307.86520281 97.72028245 306.53744669 91.67802571 305.20276833 85.63720512 C304.70260079 83.3643473 304.20622839 81.09065061 303.71387291 78.81608772 C303.03097812 75.66330838 302.3348964 72.51370944 301.63574219 69.36450195 C301.43984497 68.44465515 301.24394775 67.52480835 301.04211426 66.5770874 C299.10513552 57.97603498 296.57674214 51.2308077 289.12133789 46.16113281 C284.09454647 44.03916378 279.64205911 43.8809945 274.28540039 43.88769531 C272.56403973 43.86740605 270.8426856 43.84655526 269.12133789 43.82519531 C266.43345585 43.8026328 263.74583365 43.78613171 261.05786133 43.78027344 C258.44574129 43.77069471 255.83476183 43.7368595 253.22290039 43.70019531 C252.42993561 43.70524078 251.63697083 43.71028625 250.81997681 43.71548462 C244.28239364 43.60151889 239.08087525 41.7150193 234.09790039 37.41503906 C233.65188477 36.856875 233.20586914 36.29871094 232.74633789 35.72363281 C232.05411133 34.89025391 232.05411133 34.89025391 231.34790039 34.04003906 C227.64587776 28.36910631 227.27414534 22.75334989 228.12133789 16.16113281 C230.37861527 9.0366011 233.6855048 4.85577774 240.12133789 1.16113281 C242.9376778 0.22235284 244.72593709 0.01989191 247.64599609 -0.01586914 C248.56157791 -0.02870438 249.47715973 -0.04153961 250.42048645 -0.05476379 C251.90629463 -0.06584419 251.90629463 -0.06584419 253.42211914 -0.07714844 C254.45008102 -0.08522018 255.47804291 -0.09329193 256.53715515 -0.10160828 C258.72022822 -0.11545192 260.90332297 -0.12617281 263.08642578 -0.1340332 C265.29840525 -0.14548755 267.51035854 -0.16583376 269.72216797 -0.19555664 C291.62329639 -0.48980733 308.44854852 2.26204709 324.94946289 18.00097656 C325.66618164 18.71382812 326.38290039 19.42667969 327.12133789 20.16113281 C327.67305664 20.67804688 328.22477539 21.19496094 328.79321289 21.72753906 C337.77803673 30.97804318 341.48761038 43.48420873 344.19873047 55.72265625 C344.63655586 57.64793215 344.63655586 57.64793215 345.0832262 59.61210251 C345.92228345 63.30633223 346.74851599 67.00333422 347.57235765 70.70098305 C348.14252781 73.25609137 348.71587304 75.81046942 349.29009628 78.3646698 C352.2755525 91.64467825 355.23573893 104.9302512 358.19003654 118.21722126 C359.47493307 123.99448712 360.76159613 129.77135955 362.04804993 135.54827881 C364.47735226 146.45847312 366.90510928 157.36901067 369.3322857 168.27967811 C372.0837247 180.64760294 374.83695159 193.01512956 377.59030664 205.38262796 C381.88262467 224.66303675 386.17397832 243.94365996 390.46386719 263.22460938 C390.67447721 264.17116835 390.88508724 265.11772732 391.10207939 266.09296989 C391.30557566 267.00757044 391.50907192 267.92217098 391.71873474 268.86448669 C392.01602932 270.19998841 392.01602932 270.19998841 392.31932986 271.56246996 C392.7033268 273.28947941 393.08649275 275.01667388 393.46875703 276.74406767 C394.38652436 280.88723863 395.31853015 285.02619015 396.28003883 289.15944672 C396.46511177 289.96469843 396.6501847 290.76995014 396.84086591 291.59960341 C397.18497225 293.09482395 397.53409878 294.58890379 397.8897149 296.08142877 C399.62861563 303.6866266 399.73791853 311.26312426 399.62133789 319.03613281 C399.61579895 319.76926697 399.61026001 320.50240112 399.60455322 321.25775146 C399.44522497 339.33439992 396.39990845 355.59841543 389.12133789 372.16113281 C388.83806641 372.81533203 388.55479492 373.46953125 388.26293945 374.14355469 C378.31993482 396.66638287 361.13815821 416.334691 340.12133789 429.16113281 C339.04883789 429.84433594 337.97633789 430.52753906 336.87133789 431.23144531 C330.48363749 435.12025366 323.98182576 438.23914379 316.99633789 440.91113281 C316.3123291 441.18070801 315.62832031 441.4502832 314.92358398 441.72802734 C296.60855517 448.37055064 277.98909251 448.74180344 258.73071289 448.67871094 C255.92279799 448.68194602 253.11490899 448.69112855 250.30700684 448.69995117 C243.51975528 448.71759377 236.73268219 448.71396083 229.94542408 448.70230061 C224.42164985 448.69320972 218.8979251 448.69206649 213.37414551 448.69639587 C212.58332573 448.69700881 211.79250595 448.69762174 210.97772193 448.69825324 C209.37041122 448.69953234 207.76310053 448.7008292 206.15578985 448.70214361 C191.13865046 448.71350762 176.12160927 448.70050169 161.10448599 448.67894214 C148.26239793 448.66107497 135.42045459 448.66418026 122.57836914 448.68261719 C107.609286 448.70409818 92.64028858 448.71240938 77.67119217 448.70016813 C76.07030488 448.69889414 74.46941759 448.69763666 72.86853027 448.69639587 C72.08118051 448.69577877 71.29383075 448.69516167 70.48262191 448.69452587 C64.97541325 448.69109457 59.46825969 448.69685295 53.96105957 448.70631409 C47.23537117 448.71761628 40.5098691 448.71432363 33.78420162 448.69319111 C30.36275939 448.68278953 26.94187807 448.6805786 23.520401 448.69178772 C2.14629762 448.75530823 -17.19189786 446.81258168 -36.87866211 438.16113281 C-37.53286133 437.87786133 -38.18706055 437.59458984 -38.86108398 437.30273438 C-68.95615695 424.0168607 -92.662848 398.43956996 -104.74975586 367.96484375 C-105.60030195 365.7081529 -106.40715281 363.44175235 -107.19116211 361.16113281 C-107.53691284 360.16750732 -107.53691284 360.16750732 -107.88964844 359.15380859 C-111.99197896 346.47168654 -113.51839522 333.44847293 -113.48339844 320.16992188 C-113.48356386 319.44342579 -113.48372928 318.71692971 -113.48389971 317.9684186 C-113.41512143 302.21887639 -110.48966752 287.4348826 -106.73169923 272.18935871 C-105.8070452 268.39706095 -104.92909771 264.59394474 -104.04753113 260.79144287 C-102.89976031 255.85050649 -101.74890858 250.91041013 -100.58120823 245.97414017 C-97.53926484 233.1057957 -94.63549222 220.21015762 -91.79516602 207.29589844 C-91.5806711 206.32079284 -91.36617618 205.34568724 -91.14518142 204.34103298 C-90.26838099 200.3532114 -89.39224336 196.36524516 -88.51710927 192.37705755 C-86.07548818 181.25191451 -83.60887234 170.13233532 -81.14233398 159.01269531 C-80.23773121 154.9336435 -79.33335291 150.854542 -78.42919922 146.77539062 C-78.20449538 145.7616259 -77.97979154 144.74786117 -77.7482785 143.70337629 C-76.1253287 136.37819167 -74.50853187 129.05166298 -72.89404297 121.72460938 C-70.84728544 112.43587749 -68.79268747 103.14892024 -66.72873038 93.86399436 C-65.65052792 89.01231816 -64.57607531 84.15988697 -63.51130104 79.30524445 C-62.52182986 74.79437326 -61.52186839 70.28595463 -60.51396561 65.77916718 C-60.14932731 64.14020088 -59.78842703 62.50039728 -59.43174934 60.85968018 C-54.86720562 39.88874945 -46.96481566 21.74830762 -28.56616211 9.34863281 C-19.90574419 4.13759899 -10.20940494 0.0846492 0 0 Z M-41.87866211 257.16113281 C-42.64049805 257.82757813 -43.40233398 258.49402344 -44.18725586 259.18066406 C-59.78313902 273.74943534 -68.73416016 295.22326573 -70.08178711 316.34472656 C-70.40923959 339.07538637 -62.96646383 360.00956524 -47.87866211 377.16113281 C-46.87899414 378.30388672 -46.87899414 378.30388672 -45.85913086 379.46972656 C-31.69046601 394.63729543 -10.07944889 404.47421023 10.60763645 405.25496912 C13.48082633 405.2954201 16.35247631 405.30402449 19.22595215 405.30157471 C20.32405763 405.30454583 21.42216311 405.30751695 22.55354452 405.31057811 C26.22263448 405.31922979 29.89169168 405.32077037 33.56079102 405.32226562 C36.19607698 405.32689634 38.83136003 405.33190121 41.46664429 405.33731079 C48.6199076 405.35085558 55.77316528 405.35691299 62.92643929 405.36132145 C67.39978783 405.36409077 71.87313423 405.3683294 76.34648132 405.37282562 C88.75107945 405.38501395 101.15567587 405.39531367 113.56027985 405.39870071 C114.74970346 405.39903006 114.74970346 405.39903006 115.96315584 405.39936607 C117.15530155 405.39969348 117.15530155 405.39969348 118.37153101 405.40002751 C119.9818182 405.40047097 121.59210539 405.40091753 123.20239258 405.40136719 C124.40051009 405.40169933 124.40051009 405.40169933 125.622832 405.40203819 C138.5510599 405.40598206 151.47923129 405.42342549 164.40743738 405.44672671 C177.70575608 405.47049992 191.00404649 405.4829053 204.30238676 405.48406863 C211.75871582 405.48498212 219.21497125 405.49065155 226.67127991 405.50888824 C233.02330198 405.52437016 239.37522768 405.52936246 245.72726506 405.52115014 C248.96171117 405.51727182 252.19592531 405.51970159 255.43035507 405.53220749 C282.82507954 405.63186106 306.79769863 401.91900084 328.12133789 383.16113281 C328.88317383 382.4946875 329.64500977 381.82824219 330.42993164 381.14160156 C344.7030534 367.80847742 355.2696935 346.74895371 356.12133789 327.16113281 C356.17290039 326.16082031 356.22446289 325.16050781 356.27758789 324.12988281 C356.89146598 301.41639356 349.15162484 280.24731853 334.12133789 263.16113281 C333.45489258 262.39929688 332.78844727 261.63746094 332.10180664 260.85253906 C317.93314179 245.68497019 296.32212467 235.84805539 275.63503933 235.0672965 C272.76184946 235.02684553 269.89019947 235.01824113 267.01672363 235.02069092 C265.91861815 235.0177198 264.82051267 235.01474867 263.68913126 235.01168752 C260.0200413 235.00303583 256.35098411 235.00149525 252.68188477 235 C250.0465988 234.99536928 247.41131575 234.99036441 244.77603149 234.98495483 C237.62276818 234.97141004 230.4695105 234.96535263 223.3162365 234.96094418 C218.84288795 234.95817485 214.36954155 234.95393623 209.89619446 234.94944 C197.49159633 234.93725167 185.08699992 234.92695195 172.68239594 234.92356491 C171.49297232 234.92323556 171.49297232 234.92323556 170.27951995 234.92289956 C169.48475614 234.92268128 168.68999233 234.922463 167.87114477 234.92223811 C166.26085758 234.92179466 164.65057039 234.92134809 163.0402832 234.92089844 C161.84216569 234.92056629 161.84216569 234.92056629 160.61984378 234.92022744 C147.69161588 234.91628356 134.76344449 234.89884013 121.8352384 234.87553892 C108.5369197 234.8517657 95.23862929 234.83936033 81.94028902 234.83819699 C74.48395996 234.83728351 67.02770453 234.83161407 59.57139587 234.81337738 C53.2193738 234.79789547 46.8674481 234.79290317 40.51541072 234.80111548 C37.28096461 234.80499381 34.04675047 234.80256403 30.81232071 234.79005814 C3.41759624 234.69040456 -20.55502285 238.40326478 -41.87866211 257.16113281 Z " fill="#000000" transform="translate(112.878662109375,63.8388671875)"/>
<path d="M0 0 C6.37283377 3.78958184 10.6047637 8.86042004 12.48046875 16.08984375 C12.77523848 19.34668262 12.79150688 22.59019192 12.79931641 25.85888672 C12.80936203 26.82536636 12.81940765 27.79184601 12.82975769 28.78761292 C12.86054705 31.96907987 12.87761316 35.15046283 12.89453125 38.33203125 C12.91324629 40.54306763 12.93281996 42.7540969 12.95321655 44.96511841 C13.00450808 50.77485963 13.04414987 56.58462401 13.08135986 62.39447021 C13.12141809 68.32684034 13.17250217 74.25911441 13.22265625 80.19140625 C13.31938032 91.82415125 13.40379648 103.45695052 13.48046875 115.08984375 C14.0115625 114.60700928 14.54265625 114.1241748 15.08984375 113.62670898 C15.79625 112.99450439 16.50265625 112.3622998 17.23046875 111.7109375 C18.27460938 110.77012329 18.27460938 110.77012329 19.33984375 109.81030273 C24.02388461 106.04565447 29.37317702 104.46162665 35.40625 104.74609375 C42.23499522 105.87778787 47.01803803 108.95460296 51.2890625 114.30859375 C54.14487002 118.57826008 54.8213481 121.63369591 54.91796875 126.83984375 C54.95792969 128.0103125 54.99789062 129.18078125 55.0390625 130.38671875 C53.60575994 139.88861264 45.6652711 146.34967959 39.140625 152.828125 C38.13037616 153.8403992 37.12057264 154.85311799 36.1111908 155.86625671 C34.00547418 157.97637088 31.8944925 160.08102796 29.77954102 162.18188477 C27.07831729 164.86597405 24.39084797 167.56337048 21.7071619 170.26498127 C19.62872713 172.35428599 17.54316373 174.43635696 15.45541191 176.51634789 C14.46171754 177.50805141 13.47021801 178.50195952 12.48103523 179.49816322 C11.09628803 180.89058227 9.70079884 182.27229316 8.30493164 183.65356445 C7.51615128 184.43995804 6.72737091 185.22635162 5.91468811 186.03657532 C1.09099538 190.10536886 -3.13187774 191.53405174 -9.39453125 191.58984375 C-11.12316406 191.63625 -11.12316406 191.63625 -12.88671875 191.68359375 C-22.34305016 190.13804281 -28.7890241 182.26492022 -35.2578125 175.75 C-36.2700867 174.73975116 -37.28280549 173.72994764 -38.29594421 172.7205658 C-40.40605838 170.61484918 -42.51071546 168.5038675 -44.61157227 166.38891602 C-47.29566155 163.68769229 -49.99305798 161.00022297 -52.69466877 158.3165369 C-54.78397349 156.23810213 -56.86604446 154.15253873 -58.94603539 152.06478691 C-59.93773891 151.07109254 -60.93164702 150.07959301 -61.92785072 149.09041023 C-63.32026977 147.70566303 -64.70198066 146.31017384 -66.08325195 144.91430664 C-66.86964554 144.12552628 -67.65603912 143.33674591 -68.46626282 142.52406311 C-73.56020776 136.48501863 -74.11134228 131.17523772 -73.93359375 123.5078125 C-73.17029189 117.20697166 -70.15341962 113.40025737 -65.58203125 109.21484375 C-60.23287935 105.50318733 -55.0032289 104.17342005 -48.51953125 105.08984375 C-43.2375376 106.52890084 -39.2106948 108.24705212 -35.36376953 112.18115234 C-34.82938263 112.72484467 -34.29499573 113.26853699 -33.74441528 113.82870483 C-33.13809769 114.4529686 -33.13809769 114.4529686 -32.51953125 115.08984375 C-32.51588562 113.86954971 -32.51223999 112.64925568 -32.50848389 111.39198303 C-32.47148568 99.87188637 -32.41365995 88.35205582 -32.33562851 76.8321619 C-32.29617937 70.91015097 -32.26397813 64.98828816 -32.24853516 59.06616211 C-32.23335197 53.3471643 -32.19887617 47.6285738 -32.15122223 41.90975761 C-32.1364257 39.73181137 -32.12849123 37.55380697 -32.1276474 35.37581062 C-32.12527086 32.31659026 -32.09813488 29.25848925 -32.06542969 26.19946289 C-32.07297523 24.85941444 -32.07297523 24.85941444 -32.08067322 23.49229431 C-31.96823795 16.66047859 -30.55068109 10.30691583 -25.74041367 5.20160007 C-18.46358727 -1.34949791 -9.53561998 -3.44465032 0 0 Z " fill="#000000" transform="translate(265.51953125,0.91015625)"/>
<path d="M0 0 C1.34824067 -0.00551503 1.34824067 -0.00551503 2.72371852 -0.01114148 C5.74207747 -0.02217351 8.76040199 -0.02602136 11.77877808 -0.02983093 C13.94045623 -0.03609597 16.10213331 -0.04274281 18.2638092 -0.04974365 C25.36888886 -0.07078251 32.47396872 -0.08114622 39.57907104 -0.09111023 C42.02558275 -0.09515792 44.47209433 -0.09927485 46.9186058 -0.10346031 C58.41318432 -0.12251198 69.90775641 -0.13674279 81.40234768 -0.14507228 C94.66730184 -0.1548435 107.93208907 -0.1811603 121.19698441 -0.22157317 C131.45191499 -0.2517428 141.70679775 -0.26654199 151.96177185 -0.26985329 C158.08556325 -0.2722029 164.20917631 -0.28115196 170.33292007 -0.30631447 C176.096579 -0.32961463 181.85994241 -0.3338204 187.62363625 -0.32355309 C189.73512442 -0.32305808 191.84662724 -0.3293679 193.95807076 -0.34310913 C217.14364753 -0.48551624 217.14364753 -0.48551624 224.10501289 5.89728832 C229.57309649 11.69573286 230.66244986 17.32031261 230.50875854 25.13935852 C229.88794402 31.11469829 227.58867374 34.72311003 223.44625854 38.95967102 C216.70475152 43.49722383 210.82372363 44.59193789 202.89804077 44.52812195 C201.99438483 44.53280192 201.09072888 44.53748189 200.15968943 44.54230368 C197.14894084 44.55421515 194.13865068 44.54481146 191.12789917 44.53535461 C188.96238439 44.53942202 186.7968717 44.54476485 184.63136292 44.55128479 C178.76160008 44.56494401 172.8919957 44.55966541 167.02223015 44.55014753 C160.87470961 44.54254378 154.72720248 44.54959854 148.5796814 44.55430603 C138.2566993 44.55976148 127.93378163 44.55257745 117.61080933 44.5382843 C105.68196719 44.52195824 93.75327889 44.5272469 81.82444048 44.54376352 C71.57624258 44.55738434 61.32809094 44.55929511 51.07988691 44.55144751 C44.96185758 44.5467743 38.84390052 44.54613655 32.72587585 44.55605698 C26.97367476 44.56473296 21.2216717 44.55869295 15.46949196 44.54137421 C13.36039877 44.53741278 11.25128888 44.53853751 9.14220238 44.5451622 C6.25940321 44.55338122 3.37723545 44.54305156 0.49447632 44.52812195 C-0.33666357 44.53481411 -1.16780345 44.54150628 -2.02412939 44.54840124 C-9.57734659 44.47272406 -16.30511428 42.6457982 -21.80374146 37.14717102 C-26.03905209 31.02314077 -27.55863008 25.57473589 -26.80374146 18.14717102 C-25.38806158 12.49486095 -23.05576943 7.39623709 -18.13186646 3.99092102 C-11.97855651 0.30945353 -7.03653102 -0.00154175 0 0 Z " fill="#000000" transform="translate(196.80374145507813,361.8528289794922)"/>
<path d="M0 0 C4.58145041 2.90469037 8.12684957 7.29323353 10.11328125 12.33984375 C10.97694355 19.72188361 11.24061599 26.62392031 6.6015625 32.7265625 C1.51563322 38.23965644 -3.03914286 40.95508616 -10.63671875 41.71484375 C-16.54717366 41.52235767 -22.29563697 39.58971311 -26.78515625 35.69140625 C-32.14106031 29.70846951 -33.35533552 24.29009703 -33.19921875 16.34765625 C-32.57840423 10.37231648 -30.27913394 6.76390474 -26.13671875 2.52734375 C-17.61977045 -3.20521761 -9.39712202 -4.56060671 0 0 Z " fill="#000000" transform="translate(117.88671875,364.66015625)"/>
</svg>
